<?xml version="1.0" encoding="UTF-8" standalone="no"?>
<!DOCTYPE svg PUBLIC "-//W3C//DTD SVG 1.1//EN"
 "http://www.w3.org/Graphics/SVG/1.1/DTD/svg11.dtd">
<!-- Generated by graphviz version 2.43.0 (0)
 -->
<!-- Title: ER_UserModule Pages: 1 -->
<svg width="2077pt" height="410pt"
 viewBox="0.00 0.00 2077.09 410.00" xmlns="http://www.w3.org/2000/svg" xmlns:xlink="http://www.w3.org/1999/xlink">
<g id="graph0" class="graph" transform="scale(1 1) rotate(0) translate(4 406)">
<title>ER_UserModule</title>
<polygon fill="white" stroke="transparent" points="-4,4 -4,-406 2073.09,-406 2073.09,4 -4,4"/>
<!-- E_User -->
<g id="node1" class="node">
<title>E_User</title>
<polygon fill="#d6eaf8" stroke="black" stroke-width="2" points="850,-367 796,-367 796,-331 850,-331 850,-367"/>
<text text-anchor="middle" x="823" y="-346.2" font-family="SimHei" font-size="11.00">用户</text>
</g>
<!-- R_ISA1 -->
<g id="node6" class="node">
<title>R_ISA1</title>
<polygon fill="#fdebd0" stroke="black" points="584,-266 559,-241 584,-216 609,-241 584,-266"/>
<text text-anchor="middle" x="584" y="-238.8" font-family="SimHei" font-size="9.00">ISA</text>
</g>
<!-- E_User&#45;&gt;R_ISA1 -->
<g id="edge1" class="edge">
<title>E_User&#45;&gt;R_ISA1</title>
<path fill="none" stroke="black" stroke-width="1.2" d="M795.58,-355C732.81,-355 584,-355 584,-355 584,-355 584,-276.02 584,-276.02"/>
<polygon fill="black" stroke="black" stroke-width="1.2" points="587.5,-276.02 584,-266.02 580.5,-276.02 587.5,-276.02"/>
<text text-anchor="middle" x="590.34" y="-277.41" font-family="SimSun" font-size="9.00">1</text>
</g>
<!-- R_ISA2 -->
<g id="node7" class="node">
<title>R_ISA2</title>
<polygon fill="#fdebd0" stroke="black" points="777,-266 752,-241 777,-216 802,-241 777,-266"/>
<text text-anchor="middle" x="777" y="-238.8" font-family="SimHei" font-size="9.00">ISA</text>
</g>
<!-- E_User&#45;&gt;R_ISA2 -->
<g id="edge3" class="edge">
<title>E_User&#45;&gt;R_ISA2</title>
<path fill="none" stroke="black" stroke-width="1.2" d="M795.92,-343C784.59,-343 774,-343 774,-343 774,-343 774,-273.13 774,-273.13"/>
<polygon fill="black" stroke="black" stroke-width="1.2" points="777.5,-273.13 774,-263.13 770.5,-273.13 777.5,-273.13"/>
<text text-anchor="middle" x="780.34" y="-274.53" font-family="SimSun" font-size="9.00">1</text>
</g>
<!-- R_ISA3 -->
<g id="node8" class="node">
<title>R_ISA3</title>
<polygon fill="#fdebd0" stroke="black" points="1161,-266 1136,-241 1161,-216 1186,-241 1161,-266"/>
<text text-anchor="middle" x="1161" y="-238.8" font-family="SimHei" font-size="9.00">ISA</text>
</g>
<!-- E_User&#45;&gt;R_ISA3 -->
<g id="edge5" class="edge">
<title>E_User&#45;&gt;R_ISA3</title>
<path fill="none" stroke="black" stroke-width="1.2" d="M812.5,-330.68C812.5,-299.87 812.5,-241 812.5,-241 812.5,-241 1125.94,-241 1125.94,-241"/>
<polygon fill="black" stroke="black" stroke-width="1.2" points="1125.94,-244.5 1135.94,-241 1125.94,-237.5 1125.94,-244.5"/>
<text text-anchor="middle" x="1122.34" y="-245.14" font-family="SimSun" font-size="9.00">1</text>
</g>
<!-- R_ISA4 -->
<g id="node9" class="node">
<title>R_ISA4</title>
<polygon fill="#fdebd0" stroke="black" points="1617,-266 1592,-241 1617,-216 1642,-241 1617,-266"/>
<text text-anchor="middle" x="1617" y="-238.8" font-family="SimHei" font-size="9.00">ISA</text>
</g>
<!-- E_User&#45;&gt;R_ISA4 -->
<g id="edge7" class="edge">
<title>E_User&#45;&gt;R_ISA4</title>
<path fill="none" stroke="black" stroke-width="1.2" d="M823,-330.83C823,-311.91 823,-285 823,-285 823,-285 1617,-285 1617,-285 1617,-285 1617,-276.08 1617,-276.08"/>
<polygon fill="black" stroke="black" stroke-width="1.2" points="1620.5,-276.08 1617,-266.08 1613.5,-276.08 1620.5,-276.08"/>
<text text-anchor="middle" x="1623.34" y="-277.48" font-family="SimSun" font-size="9.00">1</text>
</g>
<!-- A_UserID -->
<g id="node10" class="node">
<title>A_UserID</title>
<ellipse fill="#e8f8f5" stroke="black" cx="1397" cy="-349" rx="25.54" ry="25"/>
<text text-anchor="start" x="1381" y="-347.1" font-family="SimSun" font-size="8.00">\用户ID\</text>
</g>
<!-- E_User&#45;&gt;A_UserID -->
<g id="edge9" class="edge">
<title>E_User&#45;&gt;A_UserID</title>
<path fill="none" stroke="black" stroke-width="0.8" d="M833.5,-330.96C833.5,-318.44 833.5,-304 833.5,-304 833.5,-304 1377.02,-304 1377.02,-304 1377.02,-304 1377.02,-320.28 1377.02,-333.26"/>
</g>
<!-- A_Phone -->
<g id="node11" class="node">
<title>A_Phone</title>
<ellipse fill="#e8f8f5" stroke="black" cx="1303" cy="-349" rx="25" ry="25"/>
<text text-anchor="middle" x="1303" y="-347.1" font-family="SimSun" font-size="8.00">手机号</text>
</g>
<!-- E_User&#45;&gt;A_Phone -->
<g id="edge10" class="edge">
<title>E_User&#45;&gt;A_Phone</title>
<path fill="none" stroke="black" stroke-width="0.8" d="M806.8,-367.24C806.8,-382.57 806.8,-402 806.8,-402 806.8,-402 1303,-402 1303,-402 1303,-402 1303,-387.91 1303,-374.26"/>
</g>
<!-- A_Password -->
<g id="node12" class="node">
<title>A_Password</title>
<ellipse fill="#e8f8f5" stroke="black" cx="1208" cy="-349" rx="26.67" ry="25"/>
<text text-anchor="middle" x="1208" y="-347.1" font-family="SimSun" font-size="8.00">登录密码</text>
</g>
<!-- E_User&#45;&gt;A_Password -->
<g id="edge11" class="edge">
<title>E_User&#45;&gt;A_Password</title>
<path fill="none" stroke="black" stroke-width="0.8" d="M817.6,-367.18C817.6,-380.04 817.6,-395 817.6,-395 817.6,-395 1208,-395 1208,-395 1208,-395 1208,-384.89 1208,-374.15"/>
</g>
<!-- A_Role -->
<g id="node13" class="node">
<title>A_Role</title>
<ellipse fill="#e8f8f5" stroke="black" cx="1112" cy="-349" rx="26.67" ry="25"/>
<text text-anchor="middle" x="1112" y="-347.1" font-family="SimSun" font-size="8.00">用户身份</text>
</g>
<!-- E_User&#45;&gt;A_Role -->
<g id="edge12" class="edge">
<title>E_User&#45;&gt;A_Role</title>
<path fill="none" stroke="black" stroke-width="0.8" d="M828.4,-367.13C828.4,-377.31 828.4,-388 828.4,-388 828.4,-388 1112,-388 1112,-388 1112,-388 1112,-381.81 1112,-374.36"/>
</g>
<!-- A_Status -->
<g id="node14" class="node">
<title>A_Status</title>
<ellipse fill="#e8f8f5" stroke="black" cx="1016" cy="-349" rx="26.67" ry="25"/>
<text text-anchor="middle" x="1016" y="-347.1" font-family="SimSun" font-size="8.00">账号状态</text>
</g>
<!-- E_User&#45;&gt;A_Status -->
<g id="edge13" class="edge">
<title>E_User&#45;&gt;A_Status</title>
<path fill="none" stroke="black" stroke-width="0.8" d="M839.2,-367.24C839.2,-374.43 839.2,-381 839.2,-381 839.2,-381 1016,-381 1016,-381 1016,-381 1016,-378.18 1016,-374.21"/>
</g>
<!-- A_RegTime -->
<g id="node15" class="node">
<title>A_RegTime</title>
<ellipse fill="#e8f8f5" stroke="black" cx="920" cy="-349" rx="26.67" ry="25"/>
<text text-anchor="middle" x="920" y="-347.1" font-family="SimSun" font-size="8.00">注册时间</text>
</g>
<!-- E_User&#45;&gt;A_RegTime -->
<g id="edge14" class="edge">
<title>E_User&#45;&gt;A_RegTime</title>
<path fill="none" stroke="black" stroke-width="0.8" d="M850.02,-349C863.47,-349 879.69,-349 893.12,-349"/>
</g>
<!-- E_Admin -->
<g id="node2" class="node">
<title>E_Admin</title>
<polygon fill="#d6eaf8" stroke="black" stroke-width="2" points="365,-151 311,-151 311,-115 365,-115 365,-151"/>
<text text-anchor="middle" x="338" y="-130.2" font-family="SimHei" font-size="11.00">管理员</text>
</g>
<!-- A_AdminID -->
<g id="node16" class="node">
<title>A_AdminID</title>
<ellipse fill="#e8f8f5" stroke="black" cx="531" cy="-133" rx="29.55" ry="25"/>
<text text-anchor="start" x="511" y="-131.1" font-family="SimSun" font-size="8.00">\管理员ID\</text>
</g>
<!-- E_Admin&#45;&gt;A_AdminID -->
<g id="edge15" class="edge">
<title>E_Admin&#45;&gt;A_AdminID</title>
<path fill="none" stroke="black" stroke-width="0.8" d="M355.99,-114.75C355.99,-100.82 355.99,-84 355.99,-84 355.99,-84 529.18,-84 529.18,-84 529.18,-84 529.18,-95.87 529.18,-107.93"/>
</g>
<!-- A_AdminName -->
<g id="node17" class="node">
<title>A_AdminName</title>
<ellipse fill="#e8f8f5" stroke="black" cx="433" cy="-133" rx="25" ry="25"/>
<text text-anchor="middle" x="433" y="-131.1" font-family="SimSun" font-size="8.00">姓名</text>
</g>
<!-- E_Admin&#45;&gt;A_AdminName -->
<g id="edge16" class="edge">
<title>E_Admin&#45;&gt;A_AdminName</title>
<path fill="none" stroke="black" stroke-width="0.8" d="M365.22,-133C378.6,-133 394.62,-133 407.73,-133"/>
</g>
<!-- E_Merchant -->
<g id="node3" class="node">
<title>E_Merchant</title>
<polygon fill="#d6eaf8" stroke="black" stroke-width="2" points="658,-151 604,-151 604,-115 658,-115 658,-151"/>
<text text-anchor="middle" x="631" y="-130.2" font-family="SimHei" font-size="11.00">商家</text>
</g>
<!-- A_MerID -->
<g id="node18" class="node">
<title>A_MerID</title>
<ellipse fill="#e8f8f5" stroke="black" cx="819" cy="-133" rx="25" ry="25"/>
<text text-anchor="start" x="805.5" y="-131.4" font-family="SimSun" font-size="7.00">\商家ID\</text>
</g>
<!-- E_Merchant&#45;&gt;A_MerID -->
<g id="edge17" class="edge">
<title>E_Merchant&#45;&gt;A_MerID</title>
<path fill="none" stroke="black" stroke-width="0.8" d="M641.67,-151.28C641.67,-166.95 641.67,-187 641.67,-187 641.67,-187 798,-187 798,-187 798,-187 798,-162.62 798,-146.63"/>
</g>
<!-- A_MerName -->
<g id="node19" class="node">
<title>A_MerName</title>
<ellipse fill="#e8f8f5" stroke="black" cx="726" cy="-133" rx="25" ry="25"/>
<text text-anchor="middle" x="726" y="-131.4" font-family="SimSun" font-size="7.00">商家名称</text>
</g>
<!-- E_Merchant&#45;&gt;A_MerName -->
<g id="edge18" class="edge">
<title>E_Merchant&#45;&gt;A_MerName</title>
<path fill="none" stroke="black" stroke-width="0.8" d="M658.22,-139C671.93,-139 688.41,-139 701.69,-139"/>
</g>
<!-- A_MerPhone -->
<g id="node20" class="node">
<title>A_MerPhone</title>
<ellipse fill="#e8f8f5" stroke="black" cx="25" cy="-25" rx="25" ry="25"/>
<text text-anchor="middle" x="25" y="-23.4" font-family="SimSun" font-size="7.00">联系电话</text>
</g>
<!-- E_Merchant&#45;&gt;A_MerPhone -->
<g id="edge19" class="edge">
<title>E_Merchant&#45;&gt;A_MerPhone</title>
<path fill="none" stroke="black" stroke-width="0.8" d="M609.4,-114.72C609.4,-99.05 609.4,-79 609.4,-79 609.4,-79 25,-79 25,-79 25,-79 25,-64.2 25,-50.1"/>
</g>
<!-- A_MerAddrProv -->
<g id="node21" class="node">
<title>A_MerAddrProv</title>
<ellipse fill="#e8f8f5" stroke="black" cx="121" cy="-25" rx="27.94" ry="25"/>
<text text-anchor="middle" x="121" y="-23.4" font-family="SimSun" font-size="7.00">营业地址&#45;省</text>
</g>
<!-- E_Merchant&#45;&gt;A_MerAddrProv -->
<g id="edge20" class="edge">
<title>E_Merchant&#45;&gt;A_MerAddrProv</title>
<path fill="none" stroke="black" stroke-width="0.8" d="M614.8,-115C614.8,-97.32 614.8,-73 614.8,-73 614.8,-73 121,-73 121,-73 121,-73 121,-61.74 121,-50.12"/>
</g>
<!-- A_MerAddrCity -->
<g id="node22" class="node">
<title>A_MerAddrCity</title>
<ellipse fill="#e8f8f5" stroke="black" cx="220" cy="-25" rx="27.94" ry="25"/>
<text text-anchor="middle" x="220" y="-23.4" font-family="SimSun" font-size="7.00">营业地址&#45;市</text>
</g>
<!-- E_Merchant&#45;&gt;A_MerAddrCity -->
<g id="edge21" class="edge">
<title>E_Merchant&#45;&gt;A_MerAddrCity</title>
<path fill="none" stroke="black" stroke-width="0.8" d="M620.2,-114.97C620.2,-95.42 620.2,-67 620.2,-67 620.2,-67 220,-67 220,-67 220,-67 220,-59.25 220,-50.4"/>
</g>
<!-- A_MerAddrDist -->
<g id="node23" class="node">
<title>A_MerAddrDist</title>
<ellipse fill="#e8f8f5" stroke="black" cx="319" cy="-25" rx="27.94" ry="25"/>
<text text-anchor="middle" x="319" y="-23.4" font-family="SimSun" font-size="7.00">营业地址&#45;区</text>
</g>
<!-- E_Merchant&#45;&gt;A_MerAddrDist -->
<g id="edge22" class="edge">
<title>E_Merchant&#45;&gt;A_MerAddrDist</title>
<path fill="none" stroke="black" stroke-width="0.8" d="M625.6,-114.83C625.6,-93.5 625.6,-61 625.6,-61 625.6,-61 328.99,-61 328.99,-61 328.99,-61 328.99,-55.28 328.99,-48.41"/>
</g>
<!-- A_MerAddrDet -->
<g id="node24" class="node">
<title>A_MerAddrDet</title>
<ellipse fill="#e8f8f5" stroke="black" cx="421" cy="-25" rx="31.28" ry="25"/>
<text text-anchor="middle" x="421" y="-23.4" font-family="SimSun" font-size="7.00">营业地址&#45;详细</text>
</g>
<!-- E_Merchant&#45;&gt;A_MerAddrDet -->
<g id="edge23" class="edge">
<title>E_Merchant&#45;&gt;A_MerAddrDet</title>
<path fill="none" stroke="black" stroke-width="0.8" d="M631,-114.91C631,-91.87 631,-55 631,-55 631,-55 430.07,-55 430.07,-55 430.07,-55 430.07,-52.49 430.07,-48.93"/>
</g>
<!-- A_MerOpenTime -->
<g id="node25" class="node">
<title>A_MerOpenTime</title>
<ellipse fill="#e8f8f5" stroke="black" cx="526" cy="-25" rx="31.28" ry="25"/>
<text text-anchor="middle" x="526" y="-23.4" font-family="SimSun" font-size="7.00">营业时间&#45;起始</text>
</g>
<!-- E_Merchant&#45;&gt;A_MerOpenTime -->
<g id="edge24" class="edge">
<title>E_Merchant&#45;&gt;A_MerOpenTime</title>
<path fill="none" stroke="black" stroke-width="0.8" d="M603.88,-133C591.83,-133 580.32,-133 580.32,-133 580.32,-133 580.32,-25 580.32,-25 580.32,-25 569.36,-25 557.28,-25"/>
</g>
<!-- A_MerEndTime -->
<g id="node26" class="node">
<title>A_MerEndTime</title>
<ellipse fill="#e8f8f5" stroke="black" cx="631" cy="-25" rx="31.28" ry="25"/>
<text text-anchor="middle" x="631" y="-23.4" font-family="SimSun" font-size="7.00">营业时间&#45;结束</text>
</g>
<!-- E_Merchant&#45;&gt;A_MerEndTime -->
<g id="edge25" class="edge">
<title>E_Merchant&#45;&gt;A_MerEndTime</title>
<path fill="none" stroke="black" stroke-width="0.8" d="M636.4,-114.68C636.4,-96.87 636.4,-69.68 636.4,-49.9"/>
</g>
<!-- A_MerNotice -->
<g id="node27" class="node">
<title>A_MerNotice</title>
<ellipse fill="#e8f8f5" stroke="black" cx="730" cy="-25" rx="25" ry="25"/>
<text text-anchor="middle" x="730" y="-23.4" font-family="SimSun" font-size="7.00">商家公告</text>
</g>
<!-- E_Merchant&#45;&gt;A_MerNotice -->
<g id="edge26" class="edge">
<title>E_Merchant&#45;&gt;A_MerNotice</title>
<path fill="none" stroke="black" stroke-width="0.8" d="M658.06,-127C670.08,-127 681.57,-127 681.57,-127 681.57,-127 681.57,-25 681.57,-25 681.57,-25 693.12,-25 704.93,-25"/>
</g>
<!-- A_MerBizStat -->
<g id="node28" class="node">
<title>A_MerBizStat</title>
<ellipse fill="#e8f8f5" stroke="black" cx="823" cy="-25" rx="25" ry="25"/>
<text text-anchor="middle" x="823" y="-23.4" font-family="SimSun" font-size="7.00">营业状态</text>
</g>
<!-- E_Merchant&#45;&gt;A_MerBizStat -->
<g id="edge27" class="edge">
<title>E_Merchant&#45;&gt;A_MerBizStat</title>
<path fill="none" stroke="black" stroke-width="0.8" d="M641.8,-114.51C641.8,-102.86 641.8,-90 641.8,-90 641.8,-90 821,-90 821,-90 821,-90 821,-68.28 821,-49.94"/>
</g>
<!-- A_MerAudit -->
<g id="node29" class="node">
<title>A_MerAudit</title>
<ellipse fill="#e8f8f5" stroke="black" cx="921" cy="-25" rx="30.16" ry="25"/>
<text text-anchor="middle" x="921" y="-23.4" font-family="SimSun" font-size="7.00">入驻审核状态</text>
</g>
<!-- E_Merchant&#45;&gt;A_MerAudit -->
<g id="edge28" class="edge">
<title>E_Merchant&#45;&gt;A_MerAudit</title>
<path fill="none" stroke="black" stroke-width="0.8" d="M647.2,-114.93C647.2,-105.54 647.2,-96 647.2,-96 647.2,-96 920,-96 920,-96 920,-96 920,-70.64 920,-50.23"/>
</g>
<!-- A_MerMonSales -->
<g id="node30" class="node">
<title>A_MerMonSales</title>
<ellipse fill="#e8f8f5" stroke="black" cx="1019" cy="-25" rx="25" ry="25"/>
<text text-anchor="middle" x="1019" y="-23.4" font-family="SimSun" font-size="7.00">月销量</text>
</g>
<!-- E_Merchant&#45;&gt;A_MerMonSales -->
<g id="edge29" class="edge">
<title>E_Merchant&#45;&gt;A_MerMonSales</title>
<path fill="none" stroke="black" stroke-width="0.8" d="M652.6,-114.97C652.6,-108.15 652.6,-102 652.6,-102 652.6,-102 1018.29,-102 1018.29,-102 1018.29,-102 1018.29,-72.67 1018.29,-50.21"/>
</g>
<!-- E_Customer -->
<g id="node4" class="node">
<title>E_Customer</title>
<polygon fill="#d6eaf8" stroke="black" stroke-width="2" points="1334,-151 1280,-151 1280,-115 1334,-115 1334,-151"/>
<text text-anchor="middle" x="1307" y="-130.2" font-family="SimHei" font-size="11.00">顾客</text>
</g>
<!-- A_CusID -->
<g id="node31" class="node">
<title>A_CusID</title>
<ellipse fill="#e8f8f5" stroke="black" cx="1113" cy="-25" rx="25.54" ry="25"/>
<text text-anchor="start" x="1097" y="-23.1" font-family="SimSun" font-size="8.00">\顾客ID\</text>
</g>
<!-- E_Customer&#45;&gt;A_CusID -->
<g id="edge30" class="edge">
<title>E_Customer&#45;&gt;A_CusID</title>
<path fill="none" stroke="black" stroke-width="0.8" d="M1279.85,-133C1226.2,-133 1111.74,-133 1111.74,-133 1111.74,-133 1111.74,-81.95 1111.74,-50.05"/>
</g>
<!-- A_CusName -->
<g id="node32" class="node">
<title>A_CusName</title>
<ellipse fill="#e8f8f5" stroke="black" cx="1207" cy="-25" rx="25" ry="25"/>
<text text-anchor="middle" x="1207" y="-23.1" font-family="SimSun" font-size="8.00">姓名</text>
</g>
<!-- E_Customer&#45;&gt;A_CusName -->
<g id="edge31" class="edge">
<title>E_Customer&#45;&gt;A_CusName</title>
<path fill="none" stroke="black" stroke-width="0.8" d="M1279.96,-124C1250.95,-124 1209,-124 1209,-124 1209,-124 1209,-79.31 1209,-49.98"/>
</g>
<!-- A_CusAddrProv -->
<g id="node33" class="node">
<title>A_CusAddrProv</title>
<ellipse fill="#e8f8f5" stroke="black" cx="1307" cy="-25" rx="32.36" ry="25"/>
<text text-anchor="middle" x="1307" y="-23.1" font-family="SimSun" font-size="8.00">配送地址&#45;省</text>
</g>
<!-- E_Customer&#45;&gt;A_CusAddrProv -->
<g id="edge32" class="edge">
<title>E_Customer&#45;&gt;A_CusAddrProv</title>
<path fill="none" stroke="black" stroke-width="0.8" d="M1307,-114.68C1307,-96.99 1307,-70.04 1307,-50.31"/>
</g>
<!-- A_CusAddrCity -->
<g id="node34" class="node">
<title>A_CusAddrCity</title>
<ellipse fill="#e8f8f5" stroke="black" cx="1415" cy="-25" rx="32.36" ry="25"/>
<text text-anchor="middle" x="1415" y="-23.1" font-family="SimSun" font-size="8.00">配送地址&#45;市</text>
</g>
<!-- E_Customer&#45;&gt;A_CusAddrCity -->
<g id="edge33" class="edge">
<title>E_Customer&#45;&gt;A_CusAddrCity</title>
<path fill="none" stroke="black" stroke-width="0.8" d="M1334.12,-127C1362.37,-127 1402.54,-127 1402.54,-127 1402.54,-127 1402.54,-78.24 1402.54,-48.15"/>
</g>
<!-- A_CusAddrDist -->
<g id="node35" class="node">
<title>A_CusAddrDist</title>
<ellipse fill="#e8f8f5" stroke="black" cx="1523" cy="-25" rx="32.36" ry="25"/>
<text text-anchor="middle" x="1523" y="-23.1" font-family="SimSun" font-size="8.00">配送地址&#45;区</text>
</g>
<!-- E_Customer&#45;&gt;A_CusAddrDist -->
<g id="edge34" class="edge">
<title>E_Customer&#45;&gt;A_CusAddrDist</title>
<path fill="none" stroke="black" stroke-width="0.8" d="M1334.36,-133C1392.48,-133 1523,-133 1523,-133 1523,-133 1523,-81.95 1523,-50.05"/>
</g>
<!-- A_CusAddrDet -->
<g id="node36" class="node">
<title>A_CusAddrDet</title>
<ellipse fill="#e8f8f5" stroke="black" cx="1635" cy="-25" rx="36.87" ry="25"/>
<text text-anchor="middle" x="1635" y="-23.1" font-family="SimSun" font-size="8.00">配送地址&#45;详细</text>
</g>
<!-- E_Customer&#45;&gt;A_CusAddrDet -->
<g id="edge35" class="edge">
<title>E_Customer&#45;&gt;A_CusAddrDet</title>
<path fill="none" stroke="black" stroke-width="0.8" d="M1334.14,-139C1409,-139 1612.88,-139 1612.88,-139 1612.88,-139 1612.88,-77.85 1612.88,-45.12"/>
</g>
<!-- E_Rider -->
<g id="node5" class="node">
<title>E_Rider</title>
<polygon fill="#d6eaf8" stroke="black" stroke-width="2" points="1861,-151 1807,-151 1807,-115 1861,-115 1861,-151"/>
<text text-anchor="middle" x="1834" y="-130.2" font-family="SimHei" font-size="11.00">骑手</text>
</g>
<!-- A_RiderID -->
<g id="node37" class="node">
<title>A_RiderID</title>
<ellipse fill="#e8f8f5" stroke="black" cx="1740" cy="-25" rx="25.54" ry="25"/>
<text text-anchor="start" x="1724" y="-23.1" font-family="SimSun" font-size="8.00">\骑手ID\</text>
</g>
<!-- E_Rider&#45;&gt;A_RiderID -->
<g id="edge36" class="edge">
<title>E_Rider&#45;&gt;A_RiderID</title>
<path fill="none" stroke="black" stroke-width="0.8" d="M1806.81,-121C1779.05,-121 1740,-121 1740,-121 1740,-121 1740,-78.67 1740,-50.22"/>
</g>
<!-- A_RiderName -->
<g id="node38" class="node">
<title>A_RiderName</title>
<ellipse fill="#e8f8f5" stroke="black" cx="1834" cy="-25" rx="25" ry="25"/>
<text text-anchor="middle" x="1834" y="-23.1" font-family="SimSun" font-size="8.00">姓名</text>
</g>
<!-- E_Rider&#45;&gt;A_RiderName -->
<g id="edge37" class="edge">
<title>E_Rider&#45;&gt;A_RiderName</title>
<path fill="none" stroke="black" stroke-width="0.8" d="M1834,-114.68C1834,-96.99 1834,-70.04 1834,-50.31"/>
</g>
<!-- A_RiderStat -->
<g id="node39" class="node">
<title>A_RiderStat</title>
<ellipse fill="#e8f8f5" stroke="black" cx="1929" cy="-25" rx="26.67" ry="25"/>
<text text-anchor="middle" x="1929" y="-23.1" font-family="SimSun" font-size="8.00">配送状态</text>
</g>
<!-- E_Rider&#45;&gt;A_RiderStat -->
<g id="edge38" class="edge">
<title>E_Rider&#45;&gt;A_RiderStat</title>
<path fill="none" stroke="black" stroke-width="0.8" d="M1861.22,-127C1889.3,-127 1929,-127 1929,-127 1929,-127 1929,-80.42 1929,-50.21"/>
</g>
<!-- A_RiderTotal -->
<g id="node40" class="node">
<title>A_RiderTotal</title>
<ellipse fill="#e8f8f5" stroke="black" cx="2034" cy="-25" rx="35.18" ry="25"/>
<text text-anchor="middle" x="2034" y="-23.1" font-family="SimSun" font-size="8.00">累计配送单数</text>
</g>
<!-- E_Rider&#45;&gt;A_RiderTotal -->
<g id="edge39" class="edge">
<title>E_Rider&#45;&gt;A_RiderTotal</title>
<path fill="none" stroke="black" stroke-width="0.8" d="M1861.39,-139C1916.16,-139 2034,-139 2034,-139 2034,-139 2034,-83.58 2034,-50.02"/>
</g>
<!-- R_ISA1&#45;&gt;E_Admin -->
<g id="edge2" class="edge">
<title>R_ISA1&#45;&gt;E_Admin</title>
<path fill="none" stroke="black" stroke-width="1.2" d="M558.6,-241C495.75,-241 338,-241 338,-241 338,-241 338,-161.32 338,-161.32"/>
<polygon fill="black" stroke="black" stroke-width="1.2" points="341.5,-161.32 338,-151.32 334.5,-161.32 341.5,-161.32"/>
<text text-anchor="middle" x="344.34" y="-162.72" font-family="SimSun" font-size="9.00">1</text>
</g>
<!-- R_ISA2&#45;&gt;E_Merchant -->
<g id="edge4" class="edge">
<title>R_ISA2&#45;&gt;E_Merchant</title>
<path fill="none" stroke="black" stroke-width="1.2" d="M751.96,-241C708.88,-241 625.33,-241 625.33,-241 625.33,-241 625.33,-161.32 625.33,-161.32"/>
<polygon fill="black" stroke="black" stroke-width="1.2" points="628.83,-161.32 625.33,-151.32 621.83,-161.32 628.83,-161.32"/>
<text text-anchor="middle" x="631.67" y="-162.72" font-family="SimSun" font-size="9.00">1</text>
</g>
<!-- R_ISA3&#45;&gt;E_Customer -->
<g id="edge6" class="edge">
<title>R_ISA3&#45;&gt;E_Customer</title>
<path fill="none" stroke="black" stroke-width="1.2" d="M1160.26,-216.53C1160.26,-187.21 1160.26,-142 1160.26,-142 1160.26,-142 1269.74,-142 1269.74,-142"/>
<polygon fill="black" stroke="black" stroke-width="1.2" points="1269.74,-145.5 1279.74,-142 1269.74,-138.5 1269.74,-145.5"/>
<text text-anchor="middle" x="1266.15" y="-146.14" font-family="SimSun" font-size="9.00">1</text>
</g>
<!-- R_ISA4&#45;&gt;E_Rider -->
<g id="edge8" class="edge">
<title>R_ISA4&#45;&gt;E_Rider</title>
<path fill="none" stroke="black" stroke-width="1.2" d="M1627.44,-226.42C1627.44,-199.56 1627.44,-145 1627.44,-145 1627.44,-145 1797,-145 1797,-145"/>
<polygon fill="black" stroke="black" stroke-width="1.2" points="1797,-148.5 1807,-145 1797,-141.5 1797,-148.5"/>
<text text-anchor="middle" x="1793.4" y="-149.14" font-family="SimSun" font-size="9.00">1</text>
</g>
</g>
</svg>
