<?xml version="1.0" encoding="UTF-8" standalone="no"?>
<!DOCTYPE svg PUBLIC "-//W3C//DTD SVG 1.1//EN"
 "http://www.w3.org/Graphics/SVG/1.1/DTD/svg11.dtd">
<!-- Generated by graphviz version 2.43.0 (0)
 -->
<!-- Title: ER_MerchantDish Pages: 1 -->
<svg width="607pt" height="992pt"
 viewBox="0.00 0.00 606.50 992.00" xmlns="http://www.w3.org/2000/svg" xmlns:xlink="http://www.w3.org/1999/xlink">
<g id="graph0" class="graph" transform="scale(1 1) rotate(0) translate(4 988)">
<title>ER_MerchantDish</title>
<polygon fill="white" stroke="transparent" points="-4,4 -4,-988 602.5,-988 602.5,4 -4,4"/>
<!-- E_Merchant -->
<g id="node1" class="node">
<title>E_Merchant</title>
<polygon fill="#d6eaf8" stroke="black" stroke-width="2" points="54,-487 0,-487 0,-451 54,-451 54,-487"/>
<text text-anchor="middle" x="27" y="-466.2" font-family="SimHei" font-size="11.00">商家</text>
</g>
<!-- R_HasCat -->
<g id="node4" class="node">
<title>R_HasCat</title>
<polygon fill="#fdebd0" stroke="black" points="166.17,-792 139.62,-767 166.17,-742 192.72,-767 166.17,-792"/>
<text text-anchor="middle" x="166.17" y="-764.8" font-family="SimHei" font-size="9.00">拥有</text>
</g>
<!-- E_Merchant&#45;&gt;R_HasCat -->
<g id="edge1" class="edge">
<title>E_Merchant&#45;&gt;R_HasCat</title>
<path fill="none" stroke="black" stroke-width="1.2" d="M36.36,-487.33C60.05,-539.32 126,-684 126,-684 126,-684 141.43,-716.69 152.92,-741.04"/>
<polygon fill="black" stroke="black" stroke-width="1.2" points="149.81,-742.65 157.24,-750.2 156.14,-739.67 149.81,-742.65"/>
<text text-anchor="middle" x="141.86" y="-735.22" font-family="SimSun" font-size="9.00">1</text>
</g>
<!-- R_HasDish -->
<g id="node6" class="node">
<title>R_HasDish</title>
<polygon fill="#fdebd0" stroke="black" points="166.17,-666 125.83,-641 166.17,-616 206.51,-641 166.17,-666"/>
<text text-anchor="middle" x="166.17" y="-638.8" font-family="SimHei" font-size="9.00">直接拥有</text>
</g>
<!-- E_Merchant&#45;&gt;R_HasDish -->
<g id="edge5" class="edge">
<title>E_Merchant&#45;&gt;R_HasDish</title>
<path fill="none" stroke="black" stroke-width="1.2" d="M41.83,-487.21C68.85,-522.77 126,-598 126,-598 126,-598 134.54,-607.37 143.64,-617.37"/>
<polygon fill="black" stroke="black" stroke-width="1.2" points="141.26,-619.95 150.58,-624.99 146.44,-615.24 141.26,-619.95"/>
<text text-anchor="middle" x="132.13" y="-615.08" font-family="SimSun" font-size="9.00">1</text>
</g>
<!-- A_MID -->
<g id="node7" class="node">
<title>A_MID</title>
<ellipse fill="#e8f8f5" stroke="black" cx="166.17" cy="-555" rx="25" ry="25"/>
<text text-anchor="start" x="152.67" y="-553.4" font-family="SimHei" font-size="7.00">\商家ID\</text>
</g>
<!-- E_Merchant&#45;&gt;A_MID -->
<g id="edge7" class="edge">
<title>E_Merchant&#45;&gt;A_MID</title>
<path fill="none" stroke="black" stroke-width="0.8" d="M54.12,-485.38C80.4,-501.85 120.38,-526.92 144.51,-542.05"/>
</g>
<!-- A_MName -->
<g id="node8" class="node">
<title>A_MName</title>
<ellipse fill="#e8f8f5" stroke="black" cx="166.17" cy="-469" rx="25" ry="25"/>
<text text-anchor="middle" x="166.17" y="-467.4" font-family="SimHei" font-size="7.00">商家名称</text>
</g>
<!-- E_Merchant&#45;&gt;A_MName -->
<g id="edge8" class="edge">
<title>E_Merchant&#45;&gt;A_MName</title>
<path fill="none" stroke="black" stroke-width="0.8" d="M54.12,-469C79.15,-469 116.62,-469 140.98,-469"/>
</g>
<!-- A_MPhone -->
<g id="node9" class="node">
<title>A_MPhone</title>
<ellipse fill="#e8f8f5" stroke="black" cx="166.17" cy="-383" rx="25" ry="25"/>
<text text-anchor="middle" x="166.17" y="-381.4" font-family="SimHei" font-size="7.00">联系电话</text>
</g>
<!-- E_Merchant&#45;&gt;A_MPhone -->
<g id="edge9" class="edge">
<title>E_Merchant&#45;&gt;A_MPhone</title>
<path fill="none" stroke="black" stroke-width="0.8" d="M54.12,-452.62C80.4,-436.15 120.38,-411.08 144.51,-395.95"/>
</g>
<!-- A_MBizStat -->
<g id="node10" class="node">
<title>A_MBizStat</title>
<ellipse fill="#e8f8f5" stroke="black" cx="166.17" cy="-297" rx="25" ry="25"/>
<text text-anchor="middle" x="166.17" y="-295.4" font-family="SimHei" font-size="7.00">营业状态</text>
</g>
<!-- E_Merchant&#45;&gt;A_MBizStat -->
<g id="edge10" class="edge">
<title>E_Merchant&#45;&gt;A_MBizStat</title>
<path fill="none" stroke="black" stroke-width="0.8" d="M41.83,-450.79C68.85,-415.23 126,-340 126,-340 126,-340 138.05,-326.77 148.79,-314.99"/>
</g>
<!-- A_MMonSales -->
<g id="node11" class="node">
<title>A_MMonSales</title>
<ellipse fill="#e8f8f5" stroke="black" cx="166.17" cy="-211" rx="25" ry="25"/>
<text text-anchor="middle" x="166.17" y="-209.4" font-family="SimHei" font-size="7.00">月销量</text>
</g>
<!-- E_Merchant&#45;&gt;A_MMonSales -->
<g id="edge11" class="edge">
<title>E_Merchant&#45;&gt;A_MMonSales</title>
<path fill="none" stroke="black" stroke-width="0.8" d="M36.36,-450.67C60.05,-398.68 126,-254 126,-254 126,-254 138.05,-240.77 148.79,-228.99"/>
</g>
<!-- E_Category -->
<g id="node2" class="node">
<title>E_Category</title>
<polygon fill="#d6eaf8" stroke="black" stroke-width="2" points="340.34,-805 278.34,-805 278.34,-769 340.34,-769 340.34,-805"/>
<text text-anchor="middle" x="309.34" y="-784.2" font-family="SimHei" font-size="11.00">菜品分类</text>
</g>
<!-- R_Contains -->
<g id="node5" class="node">
<title>R_Contains</title>
<polygon fill="#fdebd0" stroke="black" points="442.42,-984 415.87,-959 442.42,-934 468.98,-959 442.42,-984"/>
<text text-anchor="middle" x="442.42" y="-956.8" font-family="SimHei" font-size="9.00">包含</text>
</g>
<!-- E_Category&#45;&gt;R_Contains -->
<g id="edge3" class="edge">
<title>E_Category&#45;&gt;R_Contains</title>
<path fill="none" stroke="black" stroke-width="1.2" d="M324.12,-805.08C348.24,-836.73 398.03,-902.06 424.31,-936.55"/>
<polygon fill="black" stroke="black" stroke-width="1.2" points="421.61,-938.78 430.46,-944.61 427.18,-934.54 421.61,-938.78"/>
<text text-anchor="middle" x="412.75" y="-933.12" font-family="SimSun" font-size="9.00">1</text>
</g>
<!-- A_CatID -->
<g id="node12" class="node">
<title>A_CatID</title>
<ellipse fill="#e8f8f5" stroke="black" cx="442.42" cy="-873" rx="25" ry="25"/>
<text text-anchor="start" x="426.92" y="-871.1" font-family="SimHei" font-size="8.00">\分类ID\</text>
</g>
<!-- E_Category&#45;&gt;A_CatID -->
<g id="edge12" class="edge">
<title>E_Category&#45;&gt;A_CatID</title>
<path fill="none" stroke="black" stroke-width="0.8" d="M337.82,-805.03C362.59,-821.28 398.47,-844.82 420.85,-859.5"/>
</g>
<!-- A_CatName -->
<g id="node13" class="node">
<title>A_CatName</title>
<ellipse fill="#e8f8f5" stroke="black" cx="442.42" cy="-787" rx="26.67" ry="25"/>
<text text-anchor="middle" x="442.42" y="-785.1" font-family="SimHei" font-size="8.00">分类名称</text>
</g>
<!-- E_Category&#45;&gt;A_CatName -->
<g id="edge13" class="edge">
<title>E_Category&#45;&gt;A_CatName</title>
<path fill="none" stroke="black" stroke-width="0.8" d="M340.41,-787C363.09,-787 393.87,-787 415.47,-787"/>
</g>
<!-- A_CatSort -->
<g id="node14" class="node">
<title>A_CatSort</title>
<ellipse fill="#e8f8f5" stroke="black" cx="442.42" cy="-701" rx="26.67" ry="25"/>
<text text-anchor="middle" x="442.42" y="-699.1" font-family="SimHei" font-size="8.00">排序序号</text>
</g>
<!-- E_Category&#45;&gt;A_CatSort -->
<g id="edge14" class="edge">
<title>E_Category&#45;&gt;A_CatSort</title>
<path fill="none" stroke="black" stroke-width="0.8" d="M337.82,-768.97C362.29,-752.91 397.6,-729.75 420.03,-715.04"/>
</g>
<!-- E_Dish -->
<g id="node3" class="node">
<title>E_Dish</title>
<polygon fill="#d6eaf8" stroke="black" stroke-width="2" points="598.5,-387 544.5,-387 544.5,-351 598.5,-351 598.5,-387"/>
<text text-anchor="middle" x="571.5" y="-366.2" font-family="SimHei" font-size="11.00">菜品</text>
</g>
<!-- A_DishID -->
<g id="node15" class="node">
<title>A_DishID</title>
<ellipse fill="#e8f8f5" stroke="black" cx="442.42" cy="-541" rx="25" ry="25"/>
<text text-anchor="start" x="428.92" y="-539.4" font-family="SimHei" font-size="7.00">\菜品ID\</text>
</g>
<!-- E_Dish&#45;&gt;A_DishID -->
<g id="edge15" class="edge">
<title>E_Dish&#45;&gt;A_DishID</title>
<path fill="none" stroke="black" stroke-width="0.8" d="M557.06,-387.2C533.01,-419.75 482.84,-487.65 458,-521.27"/>
</g>
<!-- A_DishName -->
<g id="node16" class="node">
<title>A_DishName</title>
<ellipse fill="#e8f8f5" stroke="black" cx="442.42" cy="-455" rx="25" ry="25"/>
<text text-anchor="middle" x="442.42" y="-453.4" font-family="SimHei" font-size="7.00">菜品名称</text>
</g>
<!-- E_Dish&#45;&gt;A_DishName -->
<g id="edge16" class="edge">
<title>E_Dish&#45;&gt;A_DishName</title>
<path fill="none" stroke="black" stroke-width="0.8" d="M544.29,-386.74C520.33,-402.95 485.39,-426.6 463.56,-441.37"/>
</g>
<!-- A_DishPrice -->
<g id="node17" class="node">
<title>A_DishPrice</title>
<ellipse fill="#e8f8f5" stroke="black" cx="442.42" cy="-369" rx="25" ry="25"/>
<text text-anchor="middle" x="442.42" y="-367.4" font-family="SimHei" font-size="7.00">菜品价格</text>
</g>
<!-- E_Dish&#45;&gt;A_DishPrice -->
<g id="edge17" class="edge">
<title>E_Dish&#45;&gt;A_DishPrice</title>
<path fill="none" stroke="black" stroke-width="0.8" d="M544.2,-369C521.68,-369 489.52,-369 467.62,-369"/>
</g>
<!-- A_DishDesc -->
<g id="node18" class="node">
<title>A_DishDesc</title>
<ellipse fill="#e8f8f5" stroke="black" cx="442.42" cy="-283" rx="25" ry="25"/>
<text text-anchor="middle" x="442.42" y="-281.4" font-family="SimHei" font-size="7.00">菜品描述</text>
</g>
<!-- E_Dish&#45;&gt;A_DishDesc -->
<g id="edge18" class="edge">
<title>E_Dish&#45;&gt;A_DishDesc</title>
<path fill="none" stroke="black" stroke-width="0.8" d="M544.29,-351.26C520.33,-335.05 485.39,-311.4 463.56,-296.63"/>
</g>
<!-- A_DishImg -->
<g id="node19" class="node">
<title>A_DishImg</title>
<ellipse fill="#e8f8f5" stroke="black" cx="442.42" cy="-197" rx="30.16" ry="25"/>
<text text-anchor="middle" x="442.42" y="-195.4" font-family="SimHei" font-size="7.00">菜品图片URL</text>
</g>
<!-- E_Dish&#45;&gt;A_DishImg -->
<g id="edge19" class="edge">
<title>E_Dish&#45;&gt;A_DishImg</title>
<path fill="none" stroke="black" stroke-width="0.8" d="M557.11,-350.88C533.41,-318.79 484.19,-252.18 459,-218.09"/>
</g>
<!-- A_DishStock -->
<g id="node20" class="node">
<title>A_DishStock</title>
<ellipse fill="#e8f8f5" stroke="black" cx="442.42" cy="-111" rx="25" ry="25"/>
<text text-anchor="middle" x="442.42" y="-109.4" font-family="SimHei" font-size="7.00">库存量</text>
</g>
<!-- E_Dish&#45;&gt;A_DishStock -->
<g id="edge20" class="edge">
<title>E_Dish&#45;&gt;A_DishStock</title>
<path fill="none" stroke="black" stroke-width="0.8" d="M562.15,-350.67C538.45,-298.68 472.5,-154 472.5,-154 472.5,-154 464.65,-142.39 457.11,-131.24"/>
</g>
<!-- A_DishStat -->
<g id="node21" class="node">
<title>A_DishStat</title>
<ellipse fill="#e8f8f5" stroke="black" cx="442.42" cy="-25" rx="25" ry="25"/>
<text text-anchor="middle" x="442.42" y="-23.4" font-family="SimHei" font-size="7.00">上架状态</text>
</g>
<!-- E_Dish&#45;&gt;A_DishStat -->
<g id="edge21" class="edge">
<title>E_Dish&#45;&gt;A_DishStat</title>
<path fill="none" stroke="black" stroke-width="0.8" d="M564.52,-350.62C543.24,-285.27 472.5,-68 472.5,-68 472.5,-68 464.65,-56.39 457.11,-45.24"/>
</g>
<!-- R_HasCat&#45;&gt;E_Category -->
<g id="edge2" class="edge">
<title>R_HasCat&#45;&gt;E_Category</title>
<path fill="none" stroke="black" stroke-width="1.2" d="M189.54,-770.17C210.58,-773.15 242.59,-777.68 268.07,-781.3"/>
<polygon fill="black" stroke="black" stroke-width="1.2" points="267.8,-784.79 278.19,-782.73 268.78,-777.86 267.8,-784.79"/>
<text text-anchor="middle" x="259.06" y="-786.36" font-family="SimSun" font-size="9.00">N</text>
</g>
<!-- R_Contains&#45;&gt;E_Dish -->
<g id="edge4" class="edge">
<title>R_Contains&#45;&gt;E_Dish</title>
<path fill="none" stroke="black" stroke-width="1.2" d="M453.59,-943.96C461.98,-931.56 472.5,-916 472.5,-916 472.5,-916 545.46,-508.81 565.47,-397.07"/>
<polygon fill="black" stroke="black" stroke-width="1.2" points="568.92,-397.66 567.24,-387.2 562.03,-396.43 568.92,-397.66"/>
<text text-anchor="middle" x="572.37" y="-404.33" font-family="SimSun" font-size="9.00">N</text>
</g>
<!-- R_HasDish&#45;&gt;E_Dish -->
<g id="edge6" class="edge">
<title>R_HasDish&#45;&gt;E_Dish</title>
<path fill="none" stroke="black" stroke-width="1.2" d="M197.56,-635.33C274.79,-620.91 472.5,-584 472.5,-584 472.5,-584 531.43,-454.72 557.9,-396.65"/>
<polygon fill="black" stroke="black" stroke-width="1.2" points="561.19,-397.88 562.15,-387.33 554.82,-394.98 561.19,-397.88"/>
<text text-anchor="middle" x="562.32" y="-405.13" font-family="SimSun" font-size="9.00">N</text>
</g>
</g>
</svg>
