<?xml version="1.0" encoding="UTF-8" standalone="no"?>
<!DOCTYPE svg PUBLIC "-//W3C//DTD SVG 1.1//EN"
 "http://www.w3.org/Graphics/SVG/1.1/DTD/svg11.dtd">
<!-- Generated by graphviz version 2.43.0 (0)
 -->
<!-- Title: ER_OrderDelivery Pages: 1 -->
<svg width="1498pt" height="323pt"
 viewBox="0.00 0.00 1497.90 323.00" xmlns="http://www.w3.org/2000/svg" xmlns:xlink="http://www.w3.org/1999/xlink">
<g id="graph0" class="graph" transform="scale(1 1) rotate(0) translate(4 319)">
<title>ER_OrderDelivery</title>
<polygon fill="white" stroke="transparent" points="-4,4 -4,-319 1493.9,-319 1493.9,4 -4,4"/>
<!-- E_Customer -->
<g id="node1" class="node">
<title>E_Customer</title>
<polygon fill="#d6eaf8" stroke="black" stroke-width="2" points="484.4,-315 430.4,-315 430.4,-279 484.4,-279 484.4,-315"/>
<text text-anchor="middle" x="457.4" y="-294.2" font-family="SimHei" font-size="11.00">顾客</text>
</g>
<!-- R_CartAdd -->
<g id="node9" class="node">
<title>R_CartAdd</title>
<polygon fill="#fdebd0" stroke="black" points="65.4,-229 40.1,-207.5 65.4,-186 90.71,-207.5 65.4,-229"/>
<text text-anchor="middle" x="65.4" y="-205.6" font-family="SimHei" font-size="8.00">加入</text>
</g>
<!-- E_Customer&#45;&gt;R_CartAdd -->
<g id="edge1" class="edge">
<title>E_Customer&#45;&gt;R_CartAdd</title>
<path fill="none" stroke="black" stroke-width="1.2" d="M430.29,-290.85C347.63,-275.16 104.4,-229 104.4,-229 104.4,-229 97.37,-225.3 89.28,-221.05"/>
<polygon fill="black" stroke="black" stroke-width="1.2" points="90.85,-217.92 80.37,-216.37 87.59,-224.12 90.85,-217.92"/>
<text text-anchor="middle" x="100.35" y="-215.42" font-family="SimSun" font-size="8.00">1</text>
</g>
<!-- R_OrderSub -->
<g id="node11" class="node">
<title>R_OrderSub</title>
<polygon fill="#fdebd0" stroke="black" points="535.4,-229 510.1,-207.5 535.4,-186 560.71,-207.5 535.4,-229"/>
<text text-anchor="middle" x="535.4" y="-205.6" font-family="SimHei" font-size="8.00">提交</text>
</g>
<!-- E_Customer&#45;&gt;R_OrderSub -->
<g id="edge5" class="edge">
<title>E_Customer&#45;&gt;R_OrderSub</title>
<path fill="none" stroke="black" stroke-width="1.2" d="M472.81,-278.71C485.78,-264.17 504.31,-243.39 517.84,-228.2"/>
<polygon fill="black" stroke="black" stroke-width="1.2" points="520.74,-230.22 524.78,-220.42 515.51,-225.56 520.74,-230.22"/>
<text text-anchor="middle" x="519.02" y="-237.68" font-family="SimSun" font-size="8.00">1</text>
</g>
<!-- A_CID -->
<g id="node17" class="node">
<title>A_CID</title>
<ellipse fill="#e8f8f5" stroke="black" cx="613.4" cy="-207.5" rx="23.33" ry="21.5"/>
<text text-anchor="start" x="599.9" y="-205.9" font-family="SimHei" font-size="7.00">\顾客ID\</text>
</g>
<!-- E_Customer&#45;&gt;A_CID -->
<g id="edge17" class="edge">
<title>E_Customer&#45;&gt;A_CID</title>
<path fill="none" stroke="black" stroke-width="0.6" d="M484.58,-280.76C515.83,-263.23 566.36,-234.89 593.93,-219.42"/>
</g>
<!-- A_CName -->
<g id="node18" class="node">
<title>A_CName</title>
<ellipse fill="#e8f8f5" stroke="black" cx="383.4" cy="-207.5" rx="21.5" ry="21.5"/>
<text text-anchor="middle" x="383.4" y="-205.9" font-family="SimHei" font-size="7.00">姓名</text>
</g>
<!-- E_Customer&#45;&gt;A_CName -->
<g id="edge18" class="edge">
<title>E_Customer&#45;&gt;A_CName</title>
<path fill="none" stroke="black" stroke-width="0.6" d="M442.78,-278.71C429.47,-262.97 409.97,-239.92 397,-224.57"/>
</g>
<!-- A_CAddr -->
<g id="node19" class="node">
<title>A_CAddr</title>
<ellipse fill="#e8f8f5" stroke="black" cx="457.4" cy="-207.5" rx="23.91" ry="21.5"/>
<text text-anchor="middle" x="457.4" y="-205.9" font-family="SimHei" font-size="7.00">配送地址</text>
</g>
<!-- E_Customer&#45;&gt;A_CAddr -->
<g id="edge19" class="edge">
<title>E_Customer&#45;&gt;A_CAddr</title>
<path fill="none" stroke="black" stroke-width="0.6" d="M457.4,-278.71C457.4,-264.47 457.4,-244.23 457.4,-229.14"/>
</g>
<!-- E_Merchant -->
<g id="node2" class="node">
<title>E_Merchant</title>
<polygon fill="#d6eaf8" stroke="black" stroke-width="2" points="990.4,-315 936.4,-315 936.4,-279 990.4,-279 990.4,-315"/>
<text text-anchor="middle" x="963.4" y="-294.2" font-family="SimHei" font-size="11.00">商家</text>
</g>
<!-- R_OrderRec -->
<g id="node12" class="node">
<title>R_OrderRec</title>
<polygon fill="#fdebd0" stroke="black" points="803.4,-229 778.1,-207.5 803.4,-186 828.71,-207.5 803.4,-229"/>
<text text-anchor="middle" x="803.4" y="-205.6" font-family="SimHei" font-size="8.00">接收</text>
</g>
<!-- E_Merchant&#45;&gt;R_OrderRec -->
<g id="edge7" class="edge">
<title>E_Merchant&#45;&gt;R_OrderRec</title>
<path fill="none" stroke="black" stroke-width="1.2" d="M936.26,-281.16C905.66,-264.42 856.39,-237.48 827.23,-221.53"/>
<polygon fill="black" stroke="black" stroke-width="1.2" points="828.62,-218.3 818.16,-216.57 825.26,-224.44 828.62,-218.3"/>
<text text-anchor="middle" x="838.12" y="-215.95" font-family="SimSun" font-size="8.00">1</text>
</g>
<!-- A_MID2 -->
<g id="node20" class="node">
<title>A_MID2</title>
<ellipse fill="#e8f8f5" stroke="black" cx="963.4" cy="-207.5" rx="23.33" ry="21.5"/>
<text text-anchor="start" x="949.9" y="-205.9" font-family="SimHei" font-size="7.00">\商家ID\</text>
</g>
<!-- E_Merchant&#45;&gt;A_MID2 -->
<g id="edge20" class="edge">
<title>E_Merchant&#45;&gt;A_MID2</title>
<path fill="none" stroke="black" stroke-width="0.6" d="M963.4,-278.71C963.4,-264.47 963.4,-244.23 963.4,-229.14"/>
</g>
<!-- A_MName2 -->
<g id="node21" class="node">
<title>A_MName2</title>
<ellipse fill="#e8f8f5" stroke="black" cx="1039.4" cy="-207.5" rx="23.91" ry="21.5"/>
<text text-anchor="middle" x="1039.4" y="-205.9" font-family="SimHei" font-size="7.00">商家名称</text>
</g>
<!-- E_Merchant&#45;&gt;A_MName2 -->
<g id="edge21" class="edge">
<title>E_Merchant&#45;&gt;A_MName2</title>
<path fill="none" stroke="black" stroke-width="0.6" d="M978.42,-278.71C992,-263.07 1011.86,-240.21 1025.19,-224.86"/>
</g>
<!-- E_CartItem -->
<g id="node3" class="node">
<title>E_CartItem</title>
<polygon fill="#d6eaf8" stroke="black" stroke-width="2" points="181.4,-225.5 119.4,-225.5 119.4,-189.5 181.4,-189.5 181.4,-225.5"/>
<text text-anchor="middle" x="150.4" y="-204.7" font-family="SimHei" font-size="11.00">购物车项</text>
</g>
<!-- R_CartRef -->
<g id="node10" class="node">
<title>R_CartRef</title>
<polygon fill="#fdebd0" stroke="black" points="25.4,-136 0.1,-114.5 25.4,-93 50.71,-114.5 25.4,-136"/>
<text text-anchor="middle" x="25.4" y="-112.6" font-family="SimHei" font-size="8.00">对应</text>
</g>
<!-- E_CartItem&#45;&gt;R_CartRef -->
<g id="edge3" class="edge">
<title>E_CartItem&#45;&gt;R_CartRef</title>
<path fill="none" stroke="black" stroke-width="1.2" d="M126.89,-189.38C103.79,-172.57 68.86,-147.14 46.59,-130.93"/>
<polygon fill="black" stroke="black" stroke-width="1.2" points="48.6,-128.06 38.46,-125 44.48,-133.72 48.6,-128.06"/>
<text text-anchor="middle" x="58.08" y="-126.94" font-family="SimSun" font-size="8.00">N</text>
</g>
<!-- A_CIID -->
<g id="node22" class="node">
<title>A_CIID</title>
<ellipse fill="#e8f8f5" stroke="black" cx="110.4" cy="-114.5" rx="30.33" ry="21.5"/>
<text text-anchor="start" x="90.4" y="-112.9" font-family="SimHei" font-size="7.00">\购物车项ID\</text>
</g>
<!-- E_CartItem&#45;&gt;A_CIID -->
<g id="edge22" class="edge">
<title>E_CartItem&#45;&gt;A_CIID</title>
<path fill="none" stroke="black" stroke-width="0.6" d="M142.88,-189.38C136.14,-174.04 126.24,-151.53 119.15,-135.39"/>
</g>
<!-- A_CINum -->
<g id="node23" class="node">
<title>A_CINum</title>
<ellipse fill="#e8f8f5" stroke="black" cx="191.4" cy="-114.5" rx="21.5" ry="21.5"/>
<text text-anchor="middle" x="191.4" y="-112.9" font-family="SimHei" font-size="7.00">数量</text>
</g>
<!-- E_CartItem&#45;&gt;A_CINum -->
<g id="edge23" class="edge">
<title>E_CartItem&#45;&gt;A_CINum</title>
<path fill="none" stroke="black" stroke-width="0.6" d="M158.12,-189.38C165.17,-173.73 175.58,-150.62 182.88,-134.42"/>
</g>
<!-- E_Dish -->
<g id="node4" class="node">
<title>E_Dish</title>
<polygon fill="#d6eaf8" stroke="black" stroke-width="2" points="545.4,-132.5 491.4,-132.5 491.4,-96.5 545.4,-96.5 545.4,-132.5"/>
<text text-anchor="middle" x="518.4" y="-111.7" font-family="SimHei" font-size="11.00">菜品</text>
</g>
<!-- A_DisID -->
<g id="node24" class="node">
<title>A_DisID</title>
<ellipse fill="#e8f8f5" stroke="black" cx="498.4" cy="-21.5" rx="23.33" ry="21.5"/>
<text text-anchor="start" x="484.9" y="-19.9" font-family="SimHei" font-size="7.00">\菜品ID\</text>
</g>
<!-- E_Dish&#45;&gt;A_DisID -->
<g id="edge24" class="edge">
<title>E_Dish&#45;&gt;A_DisID</title>
<path fill="none" stroke="black" stroke-width="0.6" d="M514.64,-96.38C511.29,-81.14 506.39,-58.83 502.85,-42.72"/>
</g>
<!-- A_DisName -->
<g id="node25" class="node">
<title>A_DisName</title>
<ellipse fill="#e8f8f5" stroke="black" cx="574.4" cy="-21.5" rx="23.91" ry="21.5"/>
<text text-anchor="middle" x="574.4" y="-19.9" font-family="SimHei" font-size="7.00">菜品名称</text>
</g>
<!-- E_Dish&#45;&gt;A_DisName -->
<g id="edge25" class="edge">
<title>E_Dish&#45;&gt;A_DisName</title>
<path fill="none" stroke="black" stroke-width="0.6" d="M528.94,-96.38C538.7,-80.53 553.17,-57.01 563.15,-40.79"/>
</g>
<!-- A_DisPrice -->
<g id="node26" class="node">
<title>A_DisPrice</title>
<ellipse fill="#e8f8f5" stroke="black" cx="650.4" cy="-21.5" rx="23.91" ry="21.5"/>
<text text-anchor="middle" x="650.4" y="-19.9" font-family="SimHei" font-size="7.00">菜品价格</text>
</g>
<!-- E_Dish&#45;&gt;A_DisPrice -->
<g id="edge26" class="edge">
<title>E_Dish&#45;&gt;A_DisPrice</title>
<path fill="none" stroke="black" stroke-width="0.6" d="M543.23,-96.38C569.07,-78.57 608.93,-51.09 632.06,-35.15"/>
</g>
<!-- A_DisStock -->
<g id="node27" class="node">
<title>A_DisStock</title>
<ellipse fill="#e8f8f5" stroke="black" cx="424.4" cy="-21.5" rx="21.5" ry="21.5"/>
<text text-anchor="middle" x="424.4" y="-19.9" font-family="SimHei" font-size="7.00">库存量</text>
</g>
<!-- E_Dish&#45;&gt;A_DisStock -->
<g id="edge27" class="edge">
<title>E_Dish&#45;&gt;A_DisStock</title>
<path fill="none" stroke="black" stroke-width="0.6" d="M500.72,-96.38C483.07,-79.29 456.22,-53.3 439.52,-37.14"/>
</g>
<!-- E_Order -->
<g id="node5" class="node">
<title>E_Order</title>
<polygon fill="#d6eaf8" stroke="black" stroke-width="2" points="911.4,-225.5 857.4,-225.5 857.4,-189.5 911.4,-189.5 911.4,-225.5"/>
<text text-anchor="middle" x="884.4" y="-204.7" font-family="SimHei" font-size="11.00">订单</text>
</g>
<!-- R_OrderCont -->
<g id="node13" class="node">
<title>R_OrderCont</title>
<polygon fill="#fdebd0" stroke="black" points="267.4,-136 242.1,-114.5 267.4,-93 292.71,-114.5 267.4,-136"/>
<text text-anchor="middle" x="267.4" y="-112.6" font-family="SimHei" font-size="8.00">包含</text>
</g>
<!-- E_Order&#45;&gt;R_OrderCont -->
<g id="edge9" class="edge">
<title>E_Order&#45;&gt;R_OrderCont</title>
<path fill="none" stroke="black" stroke-width="1.2" d="M857.28,-192.94C849.66,-189.13 843.4,-186 843.4,-186 843.4,-186 306.4,-136 306.4,-136 306.4,-136 299.37,-132.3 291.28,-128.05"/>
<polygon fill="black" stroke="black" stroke-width="1.2" points="292.85,-124.92 282.37,-123.37 289.59,-131.12 292.85,-124.92"/>
<text text-anchor="middle" x="302.35" y="-122.42" font-family="SimSun" font-size="8.00">1</text>
</g>
<!-- R_DelGen -->
<g id="node15" class="node">
<title>R_DelGen</title>
<polygon fill="#fdebd0" stroke="black" points="683.4,-136 658.1,-114.5 683.4,-93 708.71,-114.5 683.4,-136"/>
<text text-anchor="middle" x="683.4" y="-112.6" font-family="SimHei" font-size="8.00">生成</text>
</g>
<!-- E_Order&#45;&gt;R_DelGen -->
<g id="edge13" class="edge">
<title>E_Order&#45;&gt;R_DelGen</title>
<path fill="none" stroke="black" stroke-width="1.2" d="M857.28,-192.94C849.66,-189.13 843.4,-186 843.4,-186 843.4,-186 722.4,-136 722.4,-136 722.4,-136 715.37,-132.3 707.28,-128.05"/>
<polygon fill="black" stroke="black" stroke-width="1.2" points="708.85,-124.92 698.37,-123.37 705.59,-131.12 708.85,-124.92"/>
<text text-anchor="middle" x="718.35" y="-122.42" font-family="SimSun" font-size="8.00">1</text>
</g>
<!-- A_OID -->
<g id="node28" class="node">
<title>A_OID</title>
<ellipse fill="#e8f8f5" stroke="black" cx="924.4" cy="-114.5" rx="26.87" ry="21.5"/>
<text text-anchor="start" x="907.4" y="-112.9" font-family="SimHei" font-size="7.00">\订单编号\</text>
</g>
<!-- E_Order&#45;&gt;A_OID -->
<g id="edge28" class="edge">
<title>E_Order&#45;&gt;A_OID</title>
<path fill="none" stroke="black" stroke-width="0.6" d="M891.93,-189.38C898.72,-173.94 908.7,-151.23 915.8,-135.07"/>
</g>
<!-- A_OTime -->
<g id="node29" class="node">
<title>A_OTime</title>
<ellipse fill="#e8f8f5" stroke="black" cx="1004.4" cy="-114.5" rx="23.91" ry="21.5"/>
<text text-anchor="middle" x="1004.4" y="-112.9" font-family="SimHei" font-size="7.00">下单时间</text>
</g>
<!-- E_Order&#45;&gt;A_OTime -->
<g id="edge29" class="edge">
<title>E_Order&#45;&gt;A_OTime</title>
<path fill="none" stroke="black" stroke-width="0.6" d="M906.98,-189.38C930.06,-171.88 965.45,-145.04 986.62,-128.99"/>
</g>
<!-- A_OStat -->
<g id="node30" class="node">
<title>A_OStat</title>
<ellipse fill="#e8f8f5" stroke="black" cx="1080.4" cy="-114.5" rx="23.91" ry="21.5"/>
<text text-anchor="middle" x="1080.4" y="-112.9" font-family="SimHei" font-size="7.00">订单状态</text>
</g>
<!-- E_Order&#45;&gt;A_OStat -->
<g id="edge30" class="edge">
<title>E_Order&#45;&gt;A_OStat</title>
<path fill="none" stroke="black" stroke-width="0.6" d="M911.52,-192.94C919.15,-189.13 925.4,-186 925.4,-186 925.4,-186 1042.4,-136 1042.4,-136 1042.4,-136 1051.32,-131.19 1060.51,-126.23"/>
</g>
<!-- A_OTotal -->
<g id="node31" class="node">
<title>A_OTotal</title>
<ellipse fill="#e8f8f5" stroke="black" cx="1154.4" cy="-114.5" rx="21.5" ry="21.5"/>
<text text-anchor="middle" x="1154.4" y="-112.9" font-family="SimHei" font-size="7.00">总金额</text>
</g>
<!-- E_Order&#45;&gt;A_OTotal -->
<g id="edge31" class="edge">
<title>E_Order&#45;&gt;A_OTotal</title>
<path fill="none" stroke="black" stroke-width="0.6" d="M911.52,-192.94C919.15,-189.13 925.4,-186 925.4,-186 925.4,-186 1118.4,-136 1118.4,-136 1118.4,-136 1127.13,-131.03 1135.98,-125.99"/>
</g>
<!-- A_ONote -->
<g id="node32" class="node">
<title>A_ONote</title>
<ellipse fill="#e8f8f5" stroke="black" cx="844.4" cy="-114.5" rx="23.91" ry="21.5"/>
<text text-anchor="middle" x="844.4" y="-112.9" font-family="SimHei" font-size="7.00">订单备注</text>
</g>
<!-- E_Order&#45;&gt;A_ONote -->
<g id="edge32" class="edge">
<title>E_Order&#45;&gt;A_ONote</title>
<path fill="none" stroke="black" stroke-width="0.6" d="M876.88,-189.38C870.05,-173.84 859.98,-150.92 852.86,-134.74"/>
</g>
<!-- E_OrderDet -->
<g id="node6" class="node">
<title>E_OrderDet</title>
<polygon fill="#d6eaf8" stroke="black" stroke-width="2" points="383.4,-132.5 321.4,-132.5 321.4,-96.5 383.4,-96.5 383.4,-132.5"/>
<text text-anchor="middle" x="352.4" y="-111.7" font-family="SimHei" font-size="11.00">订单明细</text>
</g>
<!-- R_DetRef -->
<g id="node14" class="node">
<title>R_DetRef</title>
<polygon fill="#fdebd0" stroke="black" points="437.4,-136 412.1,-114.5 437.4,-93 462.71,-114.5 437.4,-136"/>
<text text-anchor="middle" x="437.4" y="-112.6" font-family="SimHei" font-size="8.00">对应</text>
</g>
<!-- E_OrderDet&#45;&gt;R_DetRef -->
<g id="edge11" class="edge">
<title>E_OrderDet&#45;&gt;R_DetRef</title>
<path fill="none" stroke="black" stroke-width="1.2" d="M383.77,-114.5C387.88,-114.5 395.37,-114.5 401.61,-114.5"/>
<polygon fill="black" stroke="black" stroke-width="1.2" points="401.69,-118 411.69,-114.5 401.69,-111 401.69,-118"/>
<text text-anchor="middle" x="393.56" y="-121.05" font-family="SimSun" font-size="8.00">N</text>
</g>
<!-- A_ODID -->
<g id="node33" class="node">
<title>A_ODID</title>
<ellipse fill="#e8f8f5" stroke="black" cx="278.4" cy="-21.5" rx="23.33" ry="21.5"/>
<text text-anchor="start" x="264.9" y="-19.9" font-family="SimHei" font-size="7.00">\明细ID\</text>
</g>
<!-- E_OrderDet&#45;&gt;A_ODID -->
<g id="edge33" class="edge">
<title>E_OrderDet&#45;&gt;A_ODID</title>
<path fill="none" stroke="black" stroke-width="0.6" d="M338.49,-96.38C325.17,-80.01 305.22,-55.48 292.01,-39.23"/>
</g>
<!-- A_ODNum -->
<g id="node34" class="node">
<title>A_ODNum</title>
<ellipse fill="#e8f8f5" stroke="black" cx="352.4" cy="-21.5" rx="21.5" ry="21.5"/>
<text text-anchor="middle" x="352.4" y="-19.9" font-family="SimHei" font-size="7.00">数量</text>
</g>
<!-- E_OrderDet&#45;&gt;A_ODNum -->
<g id="edge34" class="edge">
<title>E_OrderDet&#45;&gt;A_ODNum</title>
<path fill="none" stroke="black" stroke-width="0.6" d="M352.4,-96.38C352.4,-81.25 352.4,-59.13 352.4,-43.04"/>
</g>
<!-- A_ODPrice -->
<g id="node35" class="node">
<title>A_ODPrice</title>
<ellipse fill="#e8f8f5" stroke="black" cx="202.4" cy="-21.5" rx="23.91" ry="21.5"/>
<text text-anchor="middle" x="202.4" y="-19.9" font-family="SimHei" font-size="7.00">成交单价</text>
</g>
<!-- E_OrderDet&#45;&gt;A_ODPrice -->
<g id="edge35" class="edge">
<title>E_OrderDet&#45;&gt;A_ODPrice</title>
<path fill="none" stroke="black" stroke-width="0.6" d="M324.19,-96.38C294.32,-78.26 247.96,-50.14 221.9,-34.33"/>
</g>
<!-- E_Delivery -->
<g id="node7" class="node">
<title>E_Delivery</title>
<polygon fill="#d6eaf8" stroke="black" stroke-width="2" points="791.4,-132.5 737.4,-132.5 737.4,-96.5 791.4,-96.5 791.4,-132.5"/>
<text text-anchor="middle" x="764.4" y="-111.7" font-family="SimHei" font-size="11.00">配送</text>
</g>
<!-- A_DelID -->
<g id="node36" class="node">
<title>A_DelID</title>
<ellipse fill="#e8f8f5" stroke="black" cx="802.4" cy="-21.5" rx="23.33" ry="21.5"/>
<text text-anchor="start" x="788.9" y="-19.9" font-family="SimHei" font-size="7.00">\配送ID\</text>
</g>
<!-- E_Delivery&#45;&gt;A_DelID -->
<g id="edge36" class="edge">
<title>E_Delivery&#45;&gt;A_DelID</title>
<path fill="none" stroke="black" stroke-width="0.6" d="M771.55,-96.38C778.04,-80.84 787.61,-57.92 794.37,-41.74"/>
</g>
<!-- A_DelPick -->
<g id="node37" class="node">
<title>A_DelPick</title>
<ellipse fill="#e8f8f5" stroke="black" cx="878.4" cy="-21.5" rx="23.91" ry="21.5"/>
<text text-anchor="middle" x="878.4" y="-19.9" font-family="SimHei" font-size="7.00">取餐时间</text>
</g>
<!-- E_Delivery&#45;&gt;A_DelPick -->
<g id="edge37" class="edge">
<title>E_Delivery&#45;&gt;A_DelPick</title>
<path fill="none" stroke="black" stroke-width="0.6" d="M785.85,-96.38C807.65,-78.98 841,-52.36 861.15,-36.27"/>
</g>
<!-- A_DelArr -->
<g id="node38" class="node">
<title>A_DelArr</title>
<ellipse fill="#e8f8f5" stroke="black" cx="954.4" cy="-21.5" rx="23.91" ry="21.5"/>
<text text-anchor="middle" x="954.4" y="-19.9" font-family="SimHei" font-size="7.00">送达时间</text>
</g>
<!-- E_Delivery&#45;&gt;A_DelArr -->
<g id="edge38" class="edge">
<title>E_Delivery&#45;&gt;A_DelArr</title>
<path fill="none" stroke="black" stroke-width="0.6" d="M791.71,-100.17C799.74,-96.25 806.4,-93 806.4,-93 806.4,-93 916.4,-43 916.4,-43 916.4,-43 925.32,-38.19 934.51,-33.23"/>
</g>
<!-- A_DelStat -->
<g id="node39" class="node">
<title>A_DelStat</title>
<ellipse fill="#e8f8f5" stroke="black" cx="726.4" cy="-21.5" rx="23.91" ry="21.5"/>
<text text-anchor="middle" x="726.4" y="-19.9" font-family="SimHei" font-size="7.00">配送状态</text>
</g>
<!-- E_Delivery&#45;&gt;A_DelStat -->
<g id="edge39" class="edge">
<title>E_Delivery&#45;&gt;A_DelStat</title>
<path fill="none" stroke="black" stroke-width="0.6" d="M757.26,-96.38C750.76,-80.84 741.2,-57.92 734.44,-41.74"/>
</g>
<!-- E_Rider -->
<g id="node8" class="node">
<title>E_Rider</title>
<polygon fill="#d6eaf8" stroke="black" stroke-width="2" points="1338.4,-39.5 1284.4,-39.5 1284.4,-3.5 1338.4,-3.5 1338.4,-39.5"/>
<text text-anchor="middle" x="1311.4" y="-18.7" font-family="SimHei" font-size="11.00">骑手</text>
</g>
<!-- R_DelExe -->
<g id="node16" class="node">
<title>R_DelExe</title>
<polygon fill="#fdebd0" stroke="black" points="1392.4,-43 1367.1,-21.5 1392.4,0 1417.71,-21.5 1392.4,-43"/>
<text text-anchor="middle" x="1392.4" y="-19.6" font-family="SimHei" font-size="8.00">执行</text>
</g>
<!-- E_Rider&#45;&gt;R_DelExe -->
<g id="edge15" class="edge">
<title>E_Rider&#45;&gt;R_DelExe</title>
<path fill="none" stroke="black" stroke-width="1.2" d="M1338.48,-21.5C1339.43,-21.5 1348.98,-21.5 1356.76,-21.5"/>
<polygon fill="black" stroke="black" stroke-width="1.2" points="1356.86,-25 1366.86,-21.5 1356.86,-18 1356.86,-25"/>
<text text-anchor="middle" x="1348.73" y="-28.05" font-family="SimSun" font-size="8.00">1</text>
</g>
<!-- A_RID2 -->
<g id="node40" class="node">
<title>A_RID2</title>
<ellipse fill="#e8f8f5" stroke="black" cx="1394.4" cy="-114.5" rx="23.33" ry="21.5"/>
<text text-anchor="start" x="1380.9" y="-112.9" font-family="SimHei" font-size="7.00">\骑手ID\</text>
</g>
<!-- E_Rider&#45;&gt;A_RID2 -->
<g id="edge40" class="edge">
<title>E_Rider&#45;&gt;A_RID2</title>
<path fill="none" stroke="black" stroke-width="0.6" d="M1327.11,-39.72C1342.31,-56.39 1365.18,-81.46 1379.95,-97.65"/>
</g>
<!-- A_RName2 -->
<g id="node41" class="node">
<title>A_RName2</title>
<ellipse fill="#e8f8f5" stroke="black" cx="1468.4" cy="-114.5" rx="21.5" ry="21.5"/>
<text text-anchor="middle" x="1468.4" y="-112.9" font-family="SimHei" font-size="7.00">姓名</text>
</g>
<!-- E_Rider&#45;&gt;A_RName2 -->
<g id="edge41" class="edge">
<title>E_Rider&#45;&gt;A_RName2</title>
<path fill="none" stroke="black" stroke-width="0.6" d="M1338.53,-38.22C1370.45,-56.73 1422.58,-86.94 1450.09,-102.88"/>
</g>
<!-- A_RStat2 -->
<g id="node42" class="node">
<title>A_RStat2</title>
<ellipse fill="#e8f8f5" stroke="black" cx="1228.4" cy="-114.5" rx="23.91" ry="21.5"/>
<text text-anchor="middle" x="1228.4" y="-112.9" font-family="SimHei" font-size="7.00">配送状态</text>
</g>
<!-- E_Rider&#45;&gt;A_RStat2 -->
<g id="edge42" class="edge">
<title>E_Rider&#45;&gt;A_RStat2</title>
<path fill="none" stroke="black" stroke-width="0.6" d="M1295.85,-39.55C1280.77,-56.08 1258.07,-80.97 1243.24,-97.23"/>
</g>
<!-- A_RTotal2 -->
<g id="node43" class="node">
<title>A_RTotal2</title>
<ellipse fill="#e8f8f5" stroke="black" cx="1311.4" cy="-114.5" rx="30.91" ry="21.5"/>
<text text-anchor="middle" x="1311.4" y="-112.9" font-family="SimHei" font-size="7.00">累计配送单数</text>
</g>
<!-- E_Rider&#45;&gt;A_RTotal2 -->
<g id="edge43" class="edge">
<title>E_Rider&#45;&gt;A_RTotal2</title>
<path fill="none" stroke="black" stroke-width="0.6" d="M1311.4,-39.71C1311.4,-54.81 1311.4,-76.8 1311.4,-92.85"/>
</g>
<!-- R_CartAdd&#45;&gt;E_CartItem -->
<g id="edge2" class="edge">
<title>R_CartAdd&#45;&gt;E_CartItem</title>
<path fill="none" stroke="black" stroke-width="1.2" d="M91.12,-207.5C92.74,-207.5 93.74,-207.5 93.74,-207.5 93.74,-207.5 101.49,-207.5 108.88,-207.5"/>
<polygon fill="black" stroke="black" stroke-width="1.2" points="109.04,-211 119.04,-207.5 109.04,-204 109.04,-211"/>
<text text-anchor="middle" x="100.91" y="-214.05" font-family="SimSun" font-size="8.00">N</text>
</g>
<!-- R_CartRef&#45;&gt;E_Dish -->
<g id="edge4" class="edge">
<title>R_CartRef&#45;&gt;E_Dish</title>
<path fill="none" stroke="black" stroke-width="1.2" d="M38.04,-125.28C54.14,-139.02 79.9,-161 79.9,-161 79.9,-161 462.9,-161 462.9,-161 462.9,-161 475.69,-150.29 488.99,-139.14"/>
<polygon fill="black" stroke="black" stroke-width="1.2" points="491.37,-141.72 496.79,-132.61 486.87,-136.35 491.37,-141.72"/>
<text text-anchor="middle" x="488.32" y="-148.83" font-family="SimSun" font-size="8.00">1</text>
</g>
<!-- R_OrderSub&#45;&gt;E_Order -->
<g id="edge6" class="edge">
<title>R_OrderSub&#45;&gt;E_Order</title>
<path fill="none" stroke="black" stroke-width="1.2" d="M548.04,-218.28C564.14,-232.02 589.9,-254 589.9,-254 589.9,-254 828.9,-254 828.9,-254 828.9,-254 841.69,-243.29 854.99,-232.14"/>
<polygon fill="black" stroke="black" stroke-width="1.2" points="857.37,-234.72 862.79,-225.61 852.87,-229.35 857.37,-234.72"/>
<text text-anchor="middle" x="854.32" y="-241.83" font-family="SimSun" font-size="8.00">N</text>
</g>
<!-- R_OrderRec&#45;&gt;E_Order -->
<g id="edge8" class="edge">
<title>R_OrderRec&#45;&gt;E_Order</title>
<path fill="none" stroke="black" stroke-width="1.2" d="M828.95,-207.5C829.87,-207.5 830.4,-207.5 830.4,-207.5 830.4,-207.5 839.57,-207.5 847.23,-207.5"/>
<polygon fill="black" stroke="black" stroke-width="1.2" points="847.33,-211 857.33,-207.5 847.33,-204 847.33,-211"/>
<text text-anchor="middle" x="839.2" y="-214.05" font-family="SimSun" font-size="8.00">N</text>
</g>
<!-- R_OrderCont&#45;&gt;E_OrderDet -->
<g id="edge10" class="edge">
<title>R_OrderCont&#45;&gt;E_OrderDet</title>
<path fill="none" stroke="black" stroke-width="1.2" d="M293.12,-114.5C294.74,-114.5 295.74,-114.5 295.74,-114.5 295.74,-114.5 303.49,-114.5 310.88,-114.5"/>
<polygon fill="black" stroke="black" stroke-width="1.2" points="311.04,-118 321.04,-114.5 311.04,-111 311.04,-118"/>
<text text-anchor="middle" x="302.91" y="-121.05" font-family="SimSun" font-size="8.00">N</text>
</g>
<!-- R_DetRef&#45;&gt;E_Dish -->
<g id="edge12" class="edge">
<title>R_DetRef&#45;&gt;E_Dish</title>
<path fill="none" stroke="black" stroke-width="1.2" d="M462.95,-114.5C463.87,-114.5 464.4,-114.5 464.4,-114.5 464.4,-114.5 473.57,-114.5 481.23,-114.5"/>
<polygon fill="black" stroke="black" stroke-width="1.2" points="481.33,-118 491.33,-114.5 481.33,-111 481.33,-118"/>
<text text-anchor="middle" x="473.2" y="-121.05" font-family="SimSun" font-size="8.00">1</text>
</g>
<!-- R_DelGen&#45;&gt;E_Delivery -->
<g id="edge14" class="edge">
<title>R_DelGen&#45;&gt;E_Delivery</title>
<path fill="none" stroke="black" stroke-width="1.2" d="M708.95,-114.5C709.87,-114.5 710.4,-114.5 710.4,-114.5 710.4,-114.5 719.57,-114.5 727.23,-114.5"/>
<polygon fill="black" stroke="black" stroke-width="1.2" points="727.33,-118 737.33,-114.5 727.33,-111 727.33,-118"/>
<text text-anchor="middle" x="719.2" y="-121.05" font-family="SimSun" font-size="8.00">1</text>
</g>
<!-- R_DelExe&#45;&gt;E_Delivery -->
<g id="edge16" class="edge">
<title>R_DelExe&#45;&gt;E_Delivery</title>
<path fill="none" stroke="black" stroke-width="1.2" d="M1377.44,-30.37C1366.44,-36.15 1353.4,-43 1353.4,-43 1353.4,-43 806.4,-93 806.4,-93 806.4,-93 804.18,-94.09 800.75,-95.76"/>
<polygon fill="black" stroke="black" stroke-width="1.2" points="799.17,-92.64 791.71,-100.17 802.24,-98.93 799.17,-92.64"/>
<text text-anchor="middle" x="804.3" y="-82.72" font-family="SimSun" font-size="8.00">N</text>
</g>
</g>
</svg>
