<?xml version="1.0" encoding="UTF-8" standalone="no"?>
<!DOCTYPE svg PUBLIC "-//W3C//DTD SVG 1.1//EN"
 "http://www.w3.org/Graphics/SVG/1.1/DTD/svg11.dtd">
<!-- Generated by graphviz version 2.43.0 (0)
 -->
<!-- Title: ER_Global Pages: 1 -->
<svg width="587pt" height="628pt"
 viewBox="0.00 0.00 587.00 628.00" xmlns="http://www.w3.org/2000/svg" xmlns:xlink="http://www.w3.org/1999/xlink">
<g id="graph0" class="graph" transform="scale(1 1) rotate(0) translate(4 624)">
<title>ER_Global</title>
<polygon fill="white" stroke="transparent" points="-4,4 -4,-624 583,-624 583,4 -4,4"/>
<!-- E_User -->
<g id="node1" class="node">
<title>E_User</title>
<polygon fill="#d6eaf8" stroke="black" stroke-width="2" points="356,-620 270,-620 270,-584 356,-584 356,-620"/>
<text text-anchor="middle" x="313" y="-599.2" font-family="SimHei" font-size="11.00">用户</text>
</g>
<!-- R_ISA1 -->
<g id="node12" class="node">
<title>R_ISA1</title>
<polygon fill="#fdebd0" stroke="black" points="172,-526 150.25,-506 172,-486 193.75,-506 172,-526"/>
<text text-anchor="middle" x="172" y="-504.1" font-family="SimHei" font-size="8.00">ISA</text>
</g>
<!-- E_User&#45;&gt;R_ISA1 -->
<g id="edge1" class="edge">
<title>E_User&#45;&gt;R_ISA1</title>
<path fill="none" stroke="black" stroke-width="1.2" d="M287.47,-583.98C260.32,-565.88 217.92,-537.62 192.76,-520.84"/>
<polygon fill="black" stroke="black" stroke-width="1.2" points="194.59,-517.85 184.33,-515.22 190.71,-523.68 194.59,-517.85"/>
<text text-anchor="middle" x="182.33" y="-517.82" font-family="SimSun" font-size="8.00">1</text>
</g>
<!-- R_ISA2 -->
<g id="node13" class="node">
<title>R_ISA2</title>
<polygon fill="#fdebd0" stroke="black" points="273,-526 251.25,-506 273,-486 294.75,-506 273,-526"/>
<text text-anchor="middle" x="273" y="-504.1" font-family="SimHei" font-size="8.00">ISA</text>
</g>
<!-- E_User&#45;&gt;R_ISA2 -->
<g id="edge3" class="edge">
<title>E_User&#45;&gt;R_ISA2</title>
<path fill="none" stroke="black" stroke-width="1.2" d="M305.66,-583.76C299.28,-568.75 289.96,-546.86 282.91,-530.29"/>
<polygon fill="black" stroke="black" stroke-width="1.2" points="286,-528.6 278.86,-520.77 279.56,-531.34 286,-528.6"/>
<text text-anchor="middle" x="276.86" y="-523.37" font-family="SimSun" font-size="8.00">1</text>
</g>
<!-- R_ISA3 -->
<g id="node14" class="node">
<title>R_ISA3</title>
<polygon fill="#fdebd0" stroke="black" points="374,-526 352.25,-506 374,-486 395.75,-506 374,-526"/>
<text text-anchor="middle" x="374" y="-504.1" font-family="SimHei" font-size="8.00">ISA</text>
</g>
<!-- E_User&#45;&gt;R_ISA3 -->
<g id="edge5" class="edge">
<title>E_User&#45;&gt;R_ISA3</title>
<path fill="none" stroke="black" stroke-width="1.2" d="M324.19,-583.76C334.46,-567.93 349.7,-544.44 360.62,-527.63"/>
<polygon fill="black" stroke="black" stroke-width="1.2" points="363.67,-529.35 366.18,-519.06 357.8,-525.54 363.67,-529.35"/>
<text text-anchor="middle" x="364.18" y="-521.66" font-family="SimSun" font-size="8.00">1</text>
</g>
<!-- R_ISA4 -->
<g id="node15" class="node">
<title>R_ISA4</title>
<polygon fill="#fdebd0" stroke="black" points="485,-526 463.25,-506 485,-486 506.75,-506 485,-526"/>
<text text-anchor="middle" x="485" y="-504.1" font-family="SimHei" font-size="8.00">ISA</text>
</g>
<!-- E_User&#45;&gt;R_ISA4 -->
<g id="edge7" class="edge">
<title>E_User&#45;&gt;R_ISA4</title>
<path fill="none" stroke="black" stroke-width="1.2" d="M344.15,-583.98C378.39,-565.26 432.55,-535.67 462.76,-519.16"/>
<polygon fill="black" stroke="black" stroke-width="1.2" points="464.57,-522.15 471.67,-514.29 461.22,-516.01 464.57,-522.15"/>
<text text-anchor="middle" x="469.67" y="-516.89" font-family="SimSun" font-size="8.00">1</text>
</g>
<!-- E_Admin -->
<g id="node2" class="node">
<title>E_Admin</title>
<polygon fill="#d6eaf8" stroke="black" stroke-width="2" points="184,-428 98,-428 98,-392 184,-392 184,-428"/>
<text text-anchor="middle" x="141" y="-407.2" font-family="SimHei" font-size="11.00">管理员</text>
</g>
<!-- E_Merchant -->
<g id="node3" class="node">
<title>E_Merchant</title>
<polygon fill="#d6eaf8" stroke="black" stroke-width="2" points="306,-428 220,-428 220,-392 306,-392 306,-428"/>
<text text-anchor="middle" x="263" y="-407.2" font-family="SimHei" font-size="11.00">商家</text>
</g>
<!-- R_HasCat -->
<g id="node16" class="node">
<title>R_HasCat</title>
<polygon fill="#fdebd0" stroke="black" points="194,-334 168.44,-314 194,-294 219.56,-314 194,-334"/>
<text text-anchor="middle" x="194" y="-312.1" font-family="SimHei" font-size="8.00">拥有</text>
</g>
<!-- E_Merchant&#45;&gt;R_HasCat -->
<g id="edge9" class="edge">
<title>E_Merchant&#45;&gt;R_HasCat</title>
<path fill="none" stroke="black" stroke-width="1.2" d="M250.34,-391.76C238.68,-375.87 221.36,-352.28 209.01,-335.45"/>
<polygon fill="black" stroke="black" stroke-width="1.2" points="211.79,-333.33 203.06,-327.34 206.15,-337.47 211.79,-333.33"/>
<text text-anchor="middle" x="201.06" y="-329.94" font-family="SimSun" font-size="8.00">1</text>
</g>
<!-- R_HasDish -->
<g id="node18" class="node">
<title>R_HasDish</title>
<polygon fill="#fdebd0" stroke="black" points="79,-236 39.88,-216 79,-196 118.12,-216 79,-236"/>
<text text-anchor="middle" x="79" y="-214.1" font-family="SimHei" font-size="8.00">直接拥有</text>
</g>
<!-- E_Merchant&#45;&gt;R_HasDish -->
<g id="edge13" class="edge">
<title>E_Merchant&#45;&gt;R_HasDish</title>
<path fill="none" stroke="black" stroke-width="1.2" d="M237.36,-391.98C204.02,-369.85 150,-334 150,-334 150,-334 114.15,-274.93 93.4,-240.73"/>
<polygon fill="black" stroke="black" stroke-width="1.2" points="96.17,-238.55 87.99,-231.82 90.19,-242.18 96.17,-238.55"/>
<text text-anchor="middle" x="85.99" y="-234.42" font-family="SimSun" font-size="8.00">1</text>
</g>
<!-- R_OrderRec -->
<g id="node22" class="node">
<title>R_OrderRec</title>
<polygon fill="#fdebd0" stroke="black" points="282,-334 256.44,-314 282,-294 307.56,-314 282,-334"/>
<text text-anchor="middle" x="282" y="-312.1" font-family="SimHei" font-size="8.00">接收</text>
</g>
<!-- E_Merchant&#45;&gt;R_OrderRec -->
<g id="edge21" class="edge">
<title>E_Merchant&#45;&gt;R_OrderRec</title>
<path fill="none" stroke="black" stroke-width="1.2" d="M266.48,-391.76C269.33,-377.67 273.4,-357.53 276.66,-341.41"/>
<polygon fill="black" stroke="black" stroke-width="1.2" points="280.11,-342 278.66,-331.5 273.25,-340.61 280.11,-342"/>
<text text-anchor="middle" x="276.66" y="-334.1" font-family="SimSun" font-size="8.00">1</text>
</g>
<!-- E_Customer -->
<g id="node4" class="node">
<title>E_Customer</title>
<polygon fill="#d6eaf8" stroke="black" stroke-width="2" points="428,-428 342,-428 342,-392 428,-392 428,-428"/>
<text text-anchor="middle" x="385" y="-407.2" font-family="SimHei" font-size="11.00">顾客</text>
</g>
<!-- R_CartAdd -->
<g id="node19" class="node">
<title>R_CartAdd</title>
<polygon fill="#fdebd0" stroke="black" points="458,-334 432.44,-314 458,-294 483.56,-314 458,-334"/>
<text text-anchor="middle" x="458" y="-312.1" font-family="SimHei" font-size="8.00">加入</text>
</g>
<!-- E_Customer&#45;&gt;R_CartAdd -->
<g id="edge15" class="edge">
<title>E_Customer&#45;&gt;R_CartAdd</title>
<path fill="none" stroke="black" stroke-width="1.2" d="M398.39,-391.76C410.8,-375.78 429.26,-352.01 442.34,-335.16"/>
<polygon fill="black" stroke="black" stroke-width="1.2" points="445.27,-337.1 448.64,-327.06 439.74,-332.81 445.27,-337.1"/>
<text text-anchor="middle" x="446.64" y="-329.66" font-family="SimSun" font-size="8.00">1</text>
</g>
<!-- R_OrderSub -->
<g id="node21" class="node">
<title>R_OrderSub</title>
<polygon fill="#fdebd0" stroke="black" points="370,-334 344.44,-314 370,-294 395.56,-314 370,-334"/>
<text text-anchor="middle" x="370" y="-312.1" font-family="SimHei" font-size="8.00">提交</text>
</g>
<!-- E_Customer&#45;&gt;R_OrderSub -->
<g id="edge19" class="edge">
<title>E_Customer&#45;&gt;R_OrderSub</title>
<path fill="none" stroke="black" stroke-width="1.2" d="M382.25,-391.76C380.05,-377.98 376.93,-358.4 374.38,-342.47"/>
<polygon fill="black" stroke="black" stroke-width="1.2" points="377.77,-341.46 372.73,-332.13 370.85,-342.56 377.77,-341.46"/>
<text text-anchor="middle" x="370.73" y="-334.73" font-family="SimSun" font-size="8.00">1</text>
</g>
<!-- E_Rider -->
<g id="node5" class="node">
<title>E_Rider</title>
<polygon fill="#d6eaf8" stroke="black" stroke-width="2" points="579,-428 493,-428 493,-392 579,-392 579,-428"/>
<text text-anchor="middle" x="536" y="-407.2" font-family="SimHei" font-size="11.00">骑手</text>
</g>
<!-- R_DelExe -->
<g id="node26" class="node">
<title>R_DelExe</title>
<polygon fill="#fdebd0" stroke="black" points="551,-334 525.44,-314 551,-294 576.56,-314 551,-334"/>
<text text-anchor="middle" x="551" y="-312.1" font-family="SimHei" font-size="8.00">执行</text>
</g>
<!-- E_Rider&#45;&gt;R_DelExe -->
<g id="edge29" class="edge">
<title>E_Rider&#45;&gt;R_DelExe</title>
<path fill="none" stroke="black" stroke-width="1.2" d="M538.75,-391.76C540.95,-377.98 544.07,-358.4 546.62,-342.47"/>
<polygon fill="black" stroke="black" stroke-width="1.2" points="550.15,-342.56 548.27,-332.13 543.23,-341.46 550.15,-342.56"/>
<text text-anchor="middle" x="546.27" y="-334.73" font-family="SimSun" font-size="8.00">1</text>
</g>
<!-- E_Category -->
<g id="node6" class="node">
<title>E_Category</title>
<polygon fill="#d6eaf8" stroke="black" stroke-width="2" points="240,-234 154,-234 154,-198 240,-198 240,-234"/>
<text text-anchor="middle" x="197" y="-213.2" font-family="SimHei" font-size="11.00">菜品分类</text>
</g>
<!-- R_Contains -->
<g id="node17" class="node">
<title>R_Contains</title>
<polygon fill="#fdebd0" stroke="black" points="194,-138 168.44,-118 194,-98 219.56,-118 194,-138"/>
<text text-anchor="middle" x="194" y="-116.1" font-family="SimHei" font-size="8.00">包含</text>
</g>
<!-- E_Category&#45;&gt;R_Contains -->
<g id="edge11" class="edge">
<title>E_Category&#45;&gt;R_Contains</title>
<path fill="none" stroke="black" stroke-width="1.2" d="M196.46,-197.84C196.03,-183.95 195.41,-164.08 194.9,-147.76"/>
<polygon fill="black" stroke="black" stroke-width="1.2" points="198.39,-147.54 194.58,-137.65 191.4,-147.76 198.39,-147.54"/>
<text text-anchor="middle" x="192.58" y="-140.25" font-family="SimSun" font-size="8.00">1</text>
</g>
<!-- E_Dish -->
<g id="node7" class="node">
<title>E_Dish</title>
<polygon fill="#d6eaf8" stroke="black" stroke-width="2" points="296,-38 210,-38 210,-2 296,-2 296,-38"/>
<text text-anchor="middle" x="253" y="-17.2" font-family="SimHei" font-size="11.00">菜品</text>
</g>
<!-- E_CartItem -->
<g id="node8" class="node">
<title>E_CartItem</title>
<polygon fill="#d6eaf8" stroke="black" stroke-width="2" points="499,-234 413,-234 413,-198 499,-198 499,-234"/>
<text text-anchor="middle" x="456" y="-213.2" font-family="SimHei" font-size="11.00">购物车项</text>
</g>
<!-- R_CartRef -->
<g id="node20" class="node">
<title>R_CartRef</title>
<polygon fill="#fdebd0" stroke="black" points="458,-138 432.44,-118 458,-98 483.56,-118 458,-138"/>
<text text-anchor="middle" x="458" y="-116.1" font-family="SimHei" font-size="8.00">对应</text>
</g>
<!-- E_CartItem&#45;&gt;R_CartRef -->
<g id="edge17" class="edge">
<title>E_CartItem&#45;&gt;R_CartRef</title>
<path fill="none" stroke="black" stroke-width="1.2" d="M456.36,-197.84C456.65,-184.03 457.06,-164.33 457.39,-148.08"/>
<polygon fill="black" stroke="black" stroke-width="1.2" points="460.9,-148.06 457.6,-137.99 453.9,-147.91 460.9,-148.06"/>
<text text-anchor="middle" x="454.1" y="-140.59" font-family="SimSun" font-size="8.00">N</text>
</g>
<!-- E_Order -->
<g id="node9" class="node">
<title>E_Order</title>
<polygon fill="#d6eaf8" stroke="black" stroke-width="2" points="372,-234 286,-234 286,-198 372,-198 372,-234"/>
<text text-anchor="middle" x="329" y="-213.2" font-family="SimHei" font-size="11.00">订单</text>
</g>
<!-- R_OrderCont -->
<g id="node23" class="node">
<title>R_OrderCont</title>
<polygon fill="#fdebd0" stroke="black" points="282,-138 256.44,-118 282,-98 307.56,-118 282,-138"/>
<text text-anchor="middle" x="282" y="-116.1" font-family="SimHei" font-size="8.00">包含</text>
</g>
<!-- E_Order&#45;&gt;R_OrderCont -->
<g id="edge23" class="edge">
<title>E_Order&#45;&gt;R_OrderCont</title>
<path fill="none" stroke="black" stroke-width="1.2" d="M320.6,-197.84C313,-182.33 301.77,-159.37 293.37,-142.23"/>
<polygon fill="black" stroke="black" stroke-width="1.2" points="296.35,-140.34 288.81,-132.9 290.06,-143.42 296.35,-140.34"/>
<text text-anchor="middle" x="286.81" y="-135.5" font-family="SimSun" font-size="8.00">1</text>
</g>
<!-- R_DelGen -->
<g id="node25" class="node">
<title>R_DelGen</title>
<polygon fill="#fdebd0" stroke="black" points="370,-138 344.44,-118 370,-98 395.56,-118 370,-138"/>
<text text-anchor="middle" x="370" y="-116.1" font-family="SimHei" font-size="8.00">生成</text>
</g>
<!-- E_Order&#45;&gt;R_DelGen -->
<g id="edge27" class="edge">
<title>E_Order&#45;&gt;R_DelGen</title>
<path fill="none" stroke="black" stroke-width="1.2" d="M336.33,-197.84C342.88,-182.51 352.53,-159.9 359.82,-142.83"/>
<polygon fill="black" stroke="black" stroke-width="1.2" points="363.1,-144.08 363.8,-133.51 356.66,-141.33 363.1,-144.08"/>
<text text-anchor="middle" x="361.8" y="-136.11" font-family="SimSun" font-size="8.00">1</text>
</g>
<!-- E_OrderDet -->
<g id="node10" class="node">
<title>E_OrderDet</title>
<polygon fill="#d6eaf8" stroke="black" stroke-width="2" points="86,-38 0,-38 0,-2 86,-2 86,-38"/>
<text text-anchor="middle" x="43" y="-17.2" font-family="SimHei" font-size="11.00">订单明细</text>
</g>
<!-- R_DetRef -->
<g id="node24" class="node">
<title>R_DetRef</title>
<polygon fill="#fdebd0" stroke="black" points="148,-40 122.44,-20 148,0 173.56,-20 148,-40"/>
<text text-anchor="middle" x="148" y="-18.1" font-family="SimHei" font-size="8.00">对应</text>
</g>
<!-- E_OrderDet&#45;&gt;R_DetRef -->
<g id="edge25" class="edge">
<title>E_OrderDet&#45;&gt;R_DetRef</title>
<path fill="none" stroke="black" stroke-width="1.2" d="M86.12,-20C93.31,-20 103.5,-20 112.13,-20"/>
<polygon fill="black" stroke="black" stroke-width="1.2" points="112.2,-23.5 122.2,-20 112.2,-16.5 112.2,-23.5"/>
<text text-anchor="middle" x="118.7" y="-22.6" font-family="SimSun" font-size="8.00">N</text>
</g>
<!-- E_Delivery -->
<g id="node11" class="node">
<title>E_Delivery</title>
<polygon fill="#d6eaf8" stroke="black" stroke-width="2" points="538,-38 452,-38 452,-2 538,-2 538,-38"/>
<text text-anchor="middle" x="495" y="-17.2" font-family="SimHei" font-size="11.00">配送</text>
</g>
<!-- R_ISA1&#45;&gt;E_Admin -->
<g id="edge2" class="edge">
<title>R_ISA1&#45;&gt;E_Admin</title>
<path fill="none" stroke="black" stroke-width="1.2" d="M167.16,-490.31C162.56,-476.37 155.54,-455.08 149.93,-438.07"/>
<polygon fill="black" stroke="black" stroke-width="1.2" points="153.11,-436.53 146.65,-428.13 146.46,-438.72 153.11,-436.53"/>
<text text-anchor="middle" x="144.65" y="-430.73" font-family="SimSun" font-size="8.00">1</text>
</g>
<!-- R_ISA2&#45;&gt;E_Merchant -->
<g id="edge4" class="edge">
<title>R_ISA2&#45;&gt;E_Merchant</title>
<path fill="none" stroke="black" stroke-width="1.2" d="M271.12,-487.32C269.66,-473.58 267.6,-454.27 265.93,-438.51"/>
<polygon fill="black" stroke="black" stroke-width="1.2" points="269.38,-437.86 264.84,-428.28 262.42,-438.6 269.38,-437.86"/>
<text text-anchor="middle" x="262.84" y="-430.88" font-family="SimSun" font-size="8.00">1</text>
</g>
<!-- R_ISA3&#45;&gt;E_Customer -->
<g id="edge6" class="edge">
<title>R_ISA3&#45;&gt;E_Customer</title>
<path fill="none" stroke="black" stroke-width="1.2" d="M376.02,-487.76C377.63,-473.98 379.92,-454.4 381.79,-438.47"/>
<polygon fill="black" stroke="black" stroke-width="1.2" points="385.31,-438.47 383,-428.13 378.36,-437.66 385.31,-438.47"/>
<text text-anchor="middle" x="381" y="-430.73" font-family="SimSun" font-size="8.00">1</text>
</g>
<!-- R_ISA4&#45;&gt;E_Rider -->
<g id="edge8" class="edge">
<title>R_ISA4&#45;&gt;E_Rider</title>
<path fill="none" stroke="black" stroke-width="1.2" d="M491.88,-492.32C499.52,-478.24 512.06,-455.12 521.83,-437.12"/>
<polygon fill="black" stroke="black" stroke-width="1.2" points="524.95,-438.71 526.64,-428.25 518.79,-435.37 524.95,-438.71"/>
<text text-anchor="middle" x="524.64" y="-430.85" font-family="SimSun" font-size="8.00">1</text>
</g>
<!-- R_HasCat&#45;&gt;E_Category -->
<g id="edge10" class="edge">
<title>R_HasCat&#45;&gt;E_Category</title>
<path fill="none" stroke="black" stroke-width="1.2" d="M194.59,-294.03C195.03,-279.92 195.64,-260.43 196.14,-244.59"/>
<polygon fill="black" stroke="black" stroke-width="1.2" points="199.64,-244.42 196.46,-234.31 192.65,-244.2 199.64,-244.42"/>
<text text-anchor="middle" x="192.96" y="-236.91" font-family="SimSun" font-size="8.00">N</text>
</g>
<!-- R_Contains&#45;&gt;E_Dish -->
<g id="edge12" class="edge">
<title>R_Contains&#45;&gt;E_Dish</title>
<path fill="none" stroke="black" stroke-width="1.2" d="M201.96,-104.05C210.93,-89.45 225.75,-65.33 237.12,-46.84"/>
<polygon fill="black" stroke="black" stroke-width="1.2" points="240.13,-48.63 242.38,-38.28 234.16,-44.96 240.13,-48.63"/>
<text text-anchor="middle" x="238.88" y="-40.88" font-family="SimSun" font-size="8.00">N</text>
</g>
<!-- R_HasDish&#45;&gt;E_Dish -->
<g id="edge14" class="edge">
<title>R_HasDish&#45;&gt;E_Dish</title>
<path fill="none" stroke="black" stroke-width="1.2" d="M87.99,-200.18C107.1,-168.7 150,-98 150,-98 150,-98 191.61,-66.9 221.93,-44.23"/>
<polygon fill="black" stroke="black" stroke-width="1.2" points="224.23,-46.88 230.14,-38.09 220.04,-41.27 224.23,-46.88"/>
<text text-anchor="middle" x="226.64" y="-40.69" font-family="SimSun" font-size="8.00">N</text>
</g>
<!-- R_CartAdd&#45;&gt;E_CartItem -->
<g id="edge16" class="edge">
<title>R_CartAdd&#45;&gt;E_CartItem</title>
<path fill="none" stroke="black" stroke-width="1.2" d="M457.6,-294.03C457.31,-279.92 456.9,-260.43 456.57,-244.59"/>
<polygon fill="black" stroke="black" stroke-width="1.2" points="460.07,-244.24 456.36,-234.31 453.07,-244.38 460.07,-244.24"/>
<text text-anchor="middle" x="452.86" y="-236.91" font-family="SimSun" font-size="8.00">N</text>
</g>
<!-- R_CartRef&#45;&gt;E_Dish -->
<g id="edge18" class="edge">
<title>R_CartRef&#45;&gt;E_Dish</title>
<path fill="none" stroke="black" stroke-width="1.2" d="M442.59,-109.78C412.36,-95.63 344.25,-63.73 298.44,-42.28"/>
<polygon fill="black" stroke="black" stroke-width="1.2" points="299.85,-39.08 289.31,-38 296.88,-45.42 299.85,-39.08"/>
<text text-anchor="middle" x="287.31" y="-40.6" font-family="SimSun" font-size="8.00">1</text>
</g>
<!-- R_OrderSub&#45;&gt;E_Order -->
<g id="edge20" class="edge">
<title>R_OrderSub&#45;&gt;E_Order</title>
<path fill="none" stroke="black" stroke-width="1.2" d="M363.77,-298.42C357.57,-283.9 347.92,-261.29 340.35,-243.58"/>
<polygon fill="black" stroke="black" stroke-width="1.2" points="343.54,-242.14 336.4,-234.32 337.11,-244.89 343.54,-242.14"/>
<text text-anchor="middle" x="332.9" y="-236.92" font-family="SimSun" font-size="8.00">N</text>
</g>
<!-- R_OrderRec&#45;&gt;E_Order -->
<g id="edge22" class="edge">
<title>R_OrderRec&#45;&gt;E_Order</title>
<path fill="none" stroke="black" stroke-width="1.2" d="M288.73,-299.25C295.8,-284.81 307.09,-261.75 315.92,-243.72"/>
<polygon fill="black" stroke="black" stroke-width="1.2" points="319.27,-244.82 320.53,-234.3 312.99,-241.75 319.27,-244.82"/>
<text text-anchor="middle" x="317.03" y="-236.9" font-family="SimSun" font-size="8.00">N</text>
</g>
<!-- R_OrderCont&#45;&gt;E_OrderDet -->
<g id="edge24" class="edge">
<title>R_OrderCont&#45;&gt;E_OrderDet</title>
<path fill="none" stroke="black" stroke-width="1.2" d="M266.11,-110.14C253.51,-104.7 238,-98 238,-98 238,-98 153.41,-64.6 95.65,-41.79"/>
<polygon fill="black" stroke="black" stroke-width="1.2" points="96.86,-38.51 86.28,-38.09 94.29,-45.02 96.86,-38.51"/>
<text text-anchor="middle" x="82.78" y="-40.69" font-family="SimSun" font-size="8.00">N</text>
</g>
<!-- R_DetRef&#45;&gt;E_Dish -->
<g id="edge26" class="edge">
<title>R_DetRef&#45;&gt;E_Dish</title>
<path fill="none" stroke="black" stroke-width="1.2" d="M173.8,-20C179.05,-20 183,-20 183,-20 183,-20 191.18,-20 199.63,-20"/>
<polygon fill="black" stroke="black" stroke-width="1.2" points="199.88,-23.5 209.88,-20 199.88,-16.5 199.88,-23.5"/>
<text text-anchor="middle" x="207.88" y="-22.6" font-family="SimSun" font-size="8.00">1</text>
</g>
<!-- R_DelGen&#45;&gt;E_Delivery -->
<g id="edge28" class="edge">
<title>R_DelGen&#45;&gt;E_Delivery</title>
<path fill="none" stroke="black" stroke-width="1.2" d="M382.44,-107.44C401.39,-92.89 438.04,-64.74 464.38,-44.51"/>
<polygon fill="black" stroke="black" stroke-width="1.2" points="466.74,-47.12 472.54,-38.25 462.47,-41.57 466.74,-47.12"/>
<text text-anchor="middle" x="470.54" y="-40.85" font-family="SimSun" font-size="8.00">1</text>
</g>
<!-- R_DelExe&#45;&gt;E_Delivery -->
<g id="edge30" class="edge">
<title>R_DelExe&#45;&gt;E_Delivery</title>
<path fill="none" stroke="black" stroke-width="1.2" d="M547.83,-296.46C538.59,-248.31 511.65,-107.82 500.22,-48.23"/>
<polygon fill="black" stroke="black" stroke-width="1.2" points="503.6,-47.24 498.28,-38.08 496.72,-48.56 503.6,-47.24"/>
<text text-anchor="middle" x="494.78" y="-40.68" font-family="SimSun" font-size="8.00">N</text>
</g>
</g>
</svg>
