<?xml version="1.0" encoding="UTF-8" standalone="no"?>
<!DOCTYPE svg PUBLIC "-//W3C//DTD SVG 1.1//EN"
 "http://www.w3.org/Graphics/SVG/1.1/DTD/svg11.dtd">
<!-- Generated by graphviz version 2.43.0 (0)
 -->
<!-- Title: DB_Schema Pages: 1 -->
<svg width="1298pt" height="629pt"
 viewBox="0.00 0.00 1298.00 629.00" xmlns="http://www.w3.org/2000/svg" xmlns:xlink="http://www.w3.org/1999/xlink">
<g id="graph0" class="graph" transform="scale(1 1) rotate(0) translate(4 625)">
<title>DB_Schema</title>
<polygon fill="white" stroke="transparent" points="-4,4 -4,-625 1294,-625 1294,4 -4,4"/>
<!-- T_User -->
<g id="node1" class="node">
<title>T_User</title>
<polygon fill="#ebf5fb" stroke="black" points="506.5,-477.5 506.5,-611.5 603.5,-611.5 603.5,-477.5 506.5,-477.5"/>
<polygon fill="#3498db" stroke="transparent" points="515,-589.5 515,-607.5 596,-607.5 596,-589.5 515,-589.5"/>
<polygon fill="none" stroke="black" points="515,-589.5 515,-607.5 596,-607.5 596,-589.5 515,-589.5"/>
<text text-anchor="start" x="531" y="-597.3" font-family="SimSun" font-weight="bold" font-size="9.00" fill="white">用户 (User)</text>
<polygon fill="none" stroke="black" points="515,-571.5 515,-589.5 596,-589.5 596,-571.5 515,-571.5"/>
<text text-anchor="start" x="519" y="-579.3" font-family="SimSun" text-decoration="underline" font-size="9.00">用户ID</text>
<text text-anchor="start" x="548" y="-579.3" font-family="SimSun" font-size="9.00"> (PK)</text>
<polygon fill="none" stroke="black" points="515,-553.5 515,-571.5 596,-571.5 596,-553.5 515,-553.5"/>
<text text-anchor="start" x="519" y="-560.3" font-family="SimSun" font-size="9.00">手机号 (UNIQUE)</text>
<polygon fill="none" stroke="black" points="515,-535.5 515,-553.5 596,-553.5 596,-535.5 515,-535.5"/>
<text text-anchor="start" x="519" y="-542.3" font-family="SimSun" font-size="9.00">登录密码</text>
<polygon fill="none" stroke="black" points="515,-517.5 515,-535.5 596,-535.5 596,-517.5 515,-517.5"/>
<text text-anchor="start" x="519" y="-524.3" font-family="SimSun" font-size="9.00">用户身份</text>
<polygon fill="none" stroke="black" points="515,-499.5 515,-517.5 596,-517.5 596,-499.5 515,-499.5"/>
<text text-anchor="start" x="519" y="-506.3" font-family="SimSun" font-size="9.00">账号状态</text>
<polygon fill="none" stroke="black" points="515,-481.5 515,-499.5 596,-499.5 596,-481.5 515,-481.5"/>
<text text-anchor="start" x="519" y="-488.3" font-family="SimSun" font-size="9.00">注册时间</text>
</g>
<!-- T_Admin -->
<g id="node2" class="node">
<title>T_Admin</title>
<polygon fill="#ebf5fb" stroke="black" points="468.5,-63.5 468.5,-125.5 567.5,-125.5 567.5,-63.5 468.5,-63.5"/>
<polygon fill="#2ecc71" stroke="transparent" points="477,-103.5 477,-121.5 560,-121.5 560,-103.5 477,-103.5"/>
<polygon fill="none" stroke="black" points="477,-103.5 477,-121.5 560,-121.5 560,-103.5 477,-103.5"/>
<text text-anchor="start" x="484.5" y="-111.3" font-family="SimSun" font-weight="bold" font-size="9.00" fill="white">管理员 (Admin)</text>
<polygon fill="none" stroke="black" points="477,-85.5 477,-103.5 560,-103.5 560,-85.5 477,-85.5"/>
<text text-anchor="start" x="481" y="-93.3" font-family="SimSun" text-decoration="underline" font-size="9.00">管理员ID</text>
<text text-anchor="start" x="519" y="-93.3" font-family="SimSun" font-size="9.00"> (PK/FK)</text>
<polygon fill="none" stroke="black" points="477,-67.5 477,-85.5 560,-85.5 560,-67.5 477,-67.5"/>
<text text-anchor="start" x="481" y="-74.3" font-family="SimSun" font-size="9.00">姓名</text>
</g>
<!-- T_Admin&#45;&gt;T_User -->
<g id="edge1" class="edge">
<title>T_Admin:e&#45;&gt;T_User:w</title>
<path fill="none" stroke="#c0392b" stroke-dasharray="5,2" d="M547.17,-94.5C547.17,-94.5 547.17,-534.5 547.17,-534.5"/>
<polygon fill="#c0392b" stroke="#c0392b" points="543.67,-534.5 547.17,-544.5 550.67,-534.5 543.67,-534.5"/>
<text text-anchor="middle" x="612" y="-326.6" font-family="SimSun" font-size="8.00"> &#160;管理员ID=用户ID (1:1)</text>
</g>
<!-- T_Merchant -->
<g id="node3" class="node">
<title>T_Merchant</title>
<polygon fill="#ebf5fb" stroke="black" points="82.5,-0.5 82.5,-188.5 203.5,-188.5 203.5,-0.5 82.5,-0.5"/>
<polygon fill="#2ecc71" stroke="transparent" points="91,-166.5 91,-184.5 196,-184.5 196,-166.5 91,-166.5"/>
<polygon fill="none" stroke="black" points="91,-166.5 91,-184.5 196,-184.5 196,-166.5 91,-166.5"/>
<text text-anchor="start" x="107" y="-174.3" font-family="SimSun" font-weight="bold" font-size="9.00" fill="white">商家 (Merchant)</text>
<polygon fill="none" stroke="black" points="91,-148.5 91,-166.5 196,-166.5 196,-148.5 91,-148.5"/>
<text text-anchor="start" x="95" y="-156.3" font-family="SimSun" text-decoration="underline" font-size="9.00">商家ID</text>
<text text-anchor="start" x="124" y="-156.3" font-family="SimSun" font-size="9.00"> (PK/FK)</text>
<polygon fill="none" stroke="black" points="91,-130.5 91,-148.5 196,-148.5 196,-130.5 91,-130.5"/>
<text text-anchor="start" x="95" y="-137.3" font-family="SimSun" font-size="9.00">商家名称 (UNIQUE)</text>
<polygon fill="none" stroke="black" points="91,-112.5 91,-130.5 196,-130.5 196,-112.5 91,-112.5"/>
<text text-anchor="start" x="95" y="-119.3" font-family="SimSun" font-size="9.00">联系电话</text>
<polygon fill="none" stroke="black" points="91,-94.5 91,-112.5 196,-112.5 196,-94.5 91,-94.5"/>
<text text-anchor="start" x="95" y="-101.3" font-family="SimSun" font-size="9.00">营业地址(省/市/区/详细)</text>
<polygon fill="none" stroke="black" points="91,-76.5 91,-94.5 196,-94.5 196,-76.5 91,-76.5"/>
<text text-anchor="start" x="95" y="-83.3" font-family="SimSun" font-size="9.00">营业时间(起始/结束)</text>
<polygon fill="none" stroke="black" points="91,-58.5 91,-76.5 196,-76.5 196,-58.5 91,-58.5"/>
<text text-anchor="start" x="95" y="-65.3" font-family="SimSun" font-size="9.00">商家公告</text>
<polygon fill="none" stroke="black" points="91,-40.5 91,-58.5 196,-58.5 196,-40.5 91,-40.5"/>
<text text-anchor="start" x="95" y="-47.3" font-family="SimSun" font-size="9.00">营业状态</text>
<polygon fill="none" stroke="black" points="91,-22.5 91,-40.5 196,-40.5 196,-22.5 91,-22.5"/>
<text text-anchor="start" x="95" y="-29.3" font-family="SimSun" font-size="9.00">入驻审核状态</text>
<polygon fill="none" stroke="black" points="91,-4.5 91,-22.5 196,-22.5 196,-4.5 91,-4.5"/>
<text text-anchor="start" x="95" y="-11.3" font-family="SimSun" font-size="9.00">月销量</text>
</g>
<!-- T_Merchant&#45;&gt;T_User -->
<g id="edge2" class="edge">
<title>T_Merchant:e&#45;&gt;T_User:w</title>
<path fill="none" stroke="#c0392b" stroke-dasharray="5,2" d="M199.75,-94.5C199.75,-94.5 199.75,-486 199.75,-486 199.75,-486 496,-486 496,-486"/>
<polygon fill="#c0392b" stroke="#c0392b" points="496,-489.5 506,-486 496,-482.5 496,-489.5"/>
<text text-anchor="middle" x="360" y="-326.6" font-family="SimSun" font-size="8.00"> &#160;商家ID=用户ID (1:1)</text>
</g>
<!-- T_Customer -->
<g id="node4" class="node">
<title>T_Customer</title>
<polygon fill="#ebf5fb" stroke="black" points="322.5,-54.5 322.5,-134.5 443.5,-134.5 443.5,-54.5 322.5,-54.5"/>
<polygon fill="#2ecc71" stroke="transparent" points="331,-112.5 331,-130.5 436,-130.5 436,-112.5 331,-112.5"/>
<polygon fill="none" stroke="black" points="331,-112.5 331,-130.5 436,-130.5 436,-112.5 331,-112.5"/>
<text text-anchor="start" x="347" y="-120.3" font-family="SimSun" font-weight="bold" font-size="9.00" fill="white">顾客 (Customer)</text>
<polygon fill="none" stroke="black" points="331,-94.5 331,-112.5 436,-112.5 436,-94.5 331,-94.5"/>
<text text-anchor="start" x="335" y="-102.3" font-family="SimSun" text-decoration="underline" font-size="9.00">顾客ID</text>
<text text-anchor="start" x="364" y="-102.3" font-family="SimSun" font-size="9.00"> (PK/FK)</text>
<polygon fill="none" stroke="black" points="331,-76.5 331,-94.5 436,-94.5 436,-76.5 331,-76.5"/>
<text text-anchor="start" x="335" y="-83.3" font-family="SimSun" font-size="9.00">姓名</text>
<polygon fill="none" stroke="black" points="331,-58.5 331,-76.5 436,-76.5 436,-58.5 331,-58.5"/>
<text text-anchor="start" x="335" y="-65.3" font-family="SimSun" font-size="9.00">配送地址(省/市/区/详细)</text>
</g>
<!-- T_Customer&#45;&gt;T_User -->
<g id="edge3" class="edge">
<title>T_Customer:e&#45;&gt;T_User:w</title>
<path fill="none" stroke="#c0392b" stroke-dasharray="5,2" d="M444,-130C444,-130 526.83,-130 526.83,-130 526.83,-130 526.83,-534.5 526.83,-534.5"/>
<polygon fill="#c0392b" stroke="#c0392b" points="523.33,-534.5 526.83,-544.5 530.33,-534.5 523.33,-534.5"/>
<text text-anchor="middle" x="484" y="-326.6" font-family="SimSun" font-size="8.00"> &#160;顾客ID=用户ID (1:1)</text>
</g>
<!-- T_Rider -->
<g id="node5" class="node">
<title>T_Rider</title>
<polygon fill="#ebf5fb" stroke="black" points="859,-45.5 859,-143.5 949,-143.5 949,-45.5 859,-45.5"/>
<polygon fill="#2ecc71" stroke="transparent" points="867,-121.5 867,-139.5 941,-139.5 941,-121.5 867,-121.5"/>
<polygon fill="none" stroke="black" points="867,-121.5 867,-139.5 941,-139.5 941,-121.5 867,-121.5"/>
<text text-anchor="start" x="877" y="-129.3" font-family="SimSun" font-weight="bold" font-size="9.00" fill="white">骑手 (Rider)</text>
<polygon fill="none" stroke="black" points="867,-103.5 867,-121.5 941,-121.5 941,-103.5 867,-103.5"/>
<text text-anchor="start" x="871" y="-111.3" font-family="SimSun" text-decoration="underline" font-size="9.00">骑手ID</text>
<text text-anchor="start" x="900" y="-111.3" font-family="SimSun" font-size="9.00"> (PK/FK)</text>
<polygon fill="none" stroke="black" points="867,-85.5 867,-103.5 941,-103.5 941,-85.5 867,-85.5"/>
<text text-anchor="start" x="871" y="-92.3" font-family="SimSun" font-size="9.00">姓名</text>
<polygon fill="none" stroke="black" points="867,-67.5 867,-85.5 941,-85.5 941,-67.5 867,-67.5"/>
<text text-anchor="start" x="871" y="-74.3" font-family="SimSun" font-size="9.00">配送状态</text>
<polygon fill="none" stroke="black" points="867,-49.5 867,-67.5 941,-67.5 941,-49.5 867,-49.5"/>
<text text-anchor="start" x="871" y="-56.3" font-family="SimSun" font-size="9.00">累计配送单数</text>
</g>
<!-- T_Rider&#45;&gt;T_User -->
<g id="edge4" class="edge">
<title>T_Rider:e&#45;&gt;T_User:w</title>
<path fill="none" stroke="#c0392b" stroke-dasharray="5,2" d="M949,-139C949,-139 585.5,-139 585.5,-139 585.5,-139 585.5,-534.5 585.5,-534.5"/>
<polygon fill="#c0392b" stroke="#c0392b" points="582,-534.5 585.5,-544.5 589,-534.5 582,-534.5"/>
<text text-anchor="middle" x="740" y="-326.6" font-family="SimSun" font-size="8.00"> &#160;骑手ID=用户ID (1:1)</text>
</g>
<!-- T_Category -->
<g id="node6" class="node">
<title>T_Category</title>
<polygon fill="#ebf5fb" stroke="black" points="4.5,-495.5 4.5,-593.5 115.5,-593.5 115.5,-495.5 4.5,-495.5"/>
<polygon fill="#e67e22" stroke="transparent" points="13,-571.5 13,-589.5 108,-589.5 108,-571.5 13,-571.5"/>
<polygon fill="none" stroke="black" points="13,-571.5 13,-589.5 108,-589.5 108,-571.5 13,-571.5"/>
<text text-anchor="start" x="17" y="-579.3" font-family="SimSun" font-weight="bold" font-size="9.00" fill="white">菜品分类 (Category)</text>
<polygon fill="none" stroke="black" points="13,-553.5 13,-571.5 108,-571.5 108,-553.5 13,-553.5"/>
<text text-anchor="start" x="17" y="-561.3" font-family="SimSun" text-decoration="underline" font-size="9.00">分类ID</text>
<text text-anchor="start" x="46" y="-561.3" font-family="SimSun" font-size="9.00"> (PK)</text>
<polygon fill="none" stroke="black" points="13,-535.5 13,-553.5 108,-553.5 108,-535.5 13,-535.5"/>
<text text-anchor="start" x="17" y="-542.3" font-family="SimSun" font-size="9.00">商家ID (FK)</text>
<polygon fill="none" stroke="black" points="13,-517.5 13,-535.5 108,-535.5 108,-517.5 13,-517.5"/>
<text text-anchor="start" x="17" y="-524.3" font-family="SimSun" font-size="9.00">分类名称</text>
<polygon fill="none" stroke="black" points="13,-499.5 13,-517.5 108,-517.5 108,-499.5 13,-499.5"/>
<text text-anchor="start" x="17" y="-506.3" font-family="SimSun" font-size="9.00">排序序号</text>
</g>
<!-- T_Category&#45;&gt;T_Merchant -->
<g id="edge5" class="edge">
<title>T_Category&#45;&gt;T_Merchant</title>
<path fill="none" stroke="#c0392b" stroke-dasharray="5,2" d="M115.66,-544C147.53,-544 181.25,-544 181.25,-544 181.25,-544 181.25,-198.73 181.25,-198.73"/>
<polygon fill="#c0392b" stroke="#c0392b" points="184.75,-198.73 181.25,-188.73 177.75,-198.73 184.75,-198.73"/>
<text text-anchor="middle" x="32.5" y="-326.6" font-family="SimSun" font-size="8.00"> &#160;商家ID FK (N:1)</text>
</g>
<!-- T_Dish -->
<g id="node7" class="node">
<title>T_Dish</title>
<polygon fill="#ebf5fb" stroke="black" points="87.5,-234.5 87.5,-422.5 166.5,-422.5 166.5,-234.5 87.5,-234.5"/>
<polygon fill="#e67e22" stroke="transparent" points="96,-400.5 96,-418.5 159,-418.5 159,-400.5 96,-400.5"/>
<polygon fill="none" stroke="black" points="96,-400.5 96,-418.5 159,-418.5 159,-400.5 96,-400.5"/>
<text text-anchor="start" x="103" y="-408.3" font-family="SimSun" font-weight="bold" font-size="9.00" fill="white">菜品 (Dish)</text>
<polygon fill="none" stroke="black" points="96,-382.5 96,-400.5 159,-400.5 159,-382.5 96,-382.5"/>
<text text-anchor="start" x="100" y="-390.3" font-family="SimSun" text-decoration="underline" font-size="9.00">菜品ID</text>
<text text-anchor="start" x="129" y="-390.3" font-family="SimSun" font-size="9.00"> (PK)</text>
<polygon fill="none" stroke="black" points="96,-364.5 96,-382.5 159,-382.5 159,-364.5 96,-364.5"/>
<text text-anchor="start" x="100" y="-371.3" font-family="SimSun" font-size="9.00">商家ID (FK)</text>
<polygon fill="none" stroke="black" points="96,-346.5 96,-364.5 159,-364.5 159,-346.5 96,-346.5"/>
<text text-anchor="start" x="100" y="-353.3" font-family="SimSun" font-size="9.00">分类ID (FK)</text>
<polygon fill="none" stroke="black" points="96,-328.5 96,-346.5 159,-346.5 159,-328.5 96,-328.5"/>
<text text-anchor="start" x="100" y="-335.3" font-family="SimSun" font-size="9.00">菜品名称</text>
<polygon fill="none" stroke="black" points="96,-310.5 96,-328.5 159,-328.5 159,-310.5 96,-310.5"/>
<text text-anchor="start" x="100" y="-317.3" font-family="SimSun" font-size="9.00">菜品价格</text>
<polygon fill="none" stroke="black" points="96,-292.5 96,-310.5 159,-310.5 159,-292.5 96,-292.5"/>
<text text-anchor="start" x="100" y="-299.3" font-family="SimSun" font-size="9.00">菜品描述</text>
<polygon fill="none" stroke="black" points="96,-274.5 96,-292.5 159,-292.5 159,-274.5 96,-274.5"/>
<text text-anchor="start" x="100" y="-281.3" font-family="SimSun" font-size="9.00">菜品图片URL</text>
<polygon fill="none" stroke="black" points="96,-256.5 96,-274.5 159,-274.5 159,-256.5 96,-256.5"/>
<text text-anchor="start" x="100" y="-263.3" font-family="SimSun" font-size="9.00">库存量</text>
<polygon fill="none" stroke="black" points="96,-238.5 96,-256.5 159,-256.5 159,-238.5 96,-238.5"/>
<text text-anchor="start" x="100" y="-245.3" font-family="SimSun" font-size="9.00">上架状态</text>
</g>
<!-- T_Dish&#45;&gt;T_Merchant -->
<g id="edge6" class="edge">
<title>T_Dish:w&#45;&gt;T_Merchant:e</title>
<path fill="none" stroke="#c0392b" stroke-dasharray="5,2" d="M127,-328.5C127,-328.5 127,-104.5 127,-104.5"/>
<polygon fill="#c0392b" stroke="#c0392b" points="130.5,-104.5 127,-94.5 123.5,-104.5 130.5,-104.5"/>
<text text-anchor="middle" x="125.5" y="-209.6" font-family="SimSun" font-size="8.00"> &#160;商家ID FK (N:1)</text>
</g>
<!-- T_Dish&#45;&gt;T_Category -->
<g id="edge7" class="edge">
<title>T_Dish&#45;&gt;T_Category</title>
<path fill="none" stroke="#c0392b" stroke-dasharray="5,2" d="M101.5,-422.61C101.5,-422.61 101.5,-485.48 101.5,-485.48"/>
<polygon fill="#c0392b" stroke="#c0392b" points="98,-485.48 101.5,-495.48 105,-485.48 98,-485.48"/>
<text text-anchor="middle" x="125.5" y="-443.6" font-family="SimSun" font-size="8.00"> &#160;分类ID FK (N:1)</text>
</g>
<!-- T_CartItem -->
<g id="node8" class="node">
<title>T_CartItem</title>
<polygon fill="#ebf5fb" stroke="black" points="196,-495.5 196,-593.5 308,-593.5 308,-495.5 196,-495.5"/>
<polygon fill="#9b59b6" stroke="transparent" points="204,-571.5 204,-589.5 300,-589.5 300,-571.5 204,-571.5"/>
<polygon fill="none" stroke="black" points="204,-571.5 204,-589.5 300,-589.5 300,-571.5 204,-571.5"/>
<text text-anchor="start" x="208" y="-579.3" font-family="SimSun" font-weight="bold" font-size="9.00" fill="white">购物车项 (CartItem)</text>
<polygon fill="none" stroke="black" points="204,-553.5 204,-571.5 300,-571.5 300,-553.5 204,-553.5"/>
<text text-anchor="start" x="208" y="-561.3" font-family="SimSun" text-decoration="underline" font-size="9.00">购物车项ID</text>
<text text-anchor="start" x="255" y="-561.3" font-family="SimSun" font-size="9.00"> (PK)</text>
<polygon fill="none" stroke="black" points="204,-535.5 204,-553.5 300,-553.5 300,-535.5 204,-535.5"/>
<text text-anchor="start" x="208" y="-542.3" font-family="SimSun" font-size="9.00">顾客ID (FK)</text>
<polygon fill="none" stroke="black" points="204,-517.5 204,-535.5 300,-535.5 300,-517.5 204,-517.5"/>
<text text-anchor="start" x="208" y="-524.3" font-family="SimSun" font-size="9.00">菜品ID (FK)</text>
<polygon fill="none" stroke="black" points="204,-499.5 204,-517.5 300,-517.5 300,-499.5 204,-499.5"/>
<text text-anchor="start" x="208" y="-506.3" font-family="SimSun" font-size="9.00">数量</text>
</g>
<!-- T_CartItem&#45;&gt;T_Customer -->
<g id="edge8" class="edge">
<title>T_CartItem:w&#45;&gt;T_Customer:e</title>
<path fill="none" stroke="#c0392b" stroke-dasharray="5,2" d="M255.75,-544.5C255.75,-544.5 255.75,-94 255.75,-94 255.75,-94 434,-94 434,-94"/>
<polygon fill="#c0392b" stroke="#c0392b" points="434,-97.5 444,-94 434,-90.5 434,-97.5"/>
<text text-anchor="middle" x="243.5" y="-326.6" font-family="SimSun" font-size="8.00"> &#160;顾客ID FK (N:1)</text>
</g>
<!-- T_CartItem&#45;&gt;T_Dish -->
<g id="edge9" class="edge">
<title>T_CartItem&#45;&gt;T_Dish</title>
<path fill="none" stroke="#c0392b" stroke-dasharray="5,2" d="M197.88,-495.2C197.88,-456.46 197.88,-409 197.88,-409 197.88,-409 176.58,-409 176.58,-409"/>
<polygon fill="#c0392b" stroke="#c0392b" points="176.58,-405.5 166.58,-409 176.58,-412.5 176.58,-405.5"/>
<text text-anchor="middle" x="276.5" y="-443.6" font-family="SimSun" font-size="8.00"> &#160;菜品ID FK (N:1)</text>
</g>
<!-- T_Order -->
<g id="node9" class="node">
<title>T_Order</title>
<polygon fill="#ebf5fb" stroke="black" points="902.5,-468.5 902.5,-620.5 985.5,-620.5 985.5,-468.5 902.5,-468.5"/>
<polygon fill="#e74c3c" stroke="transparent" points="911,-598.5 911,-616.5 978,-616.5 978,-598.5 911,-598.5"/>
<polygon fill="none" stroke="black" points="911,-598.5 911,-616.5 978,-616.5 978,-598.5 911,-598.5"/>
<text text-anchor="start" x="917" y="-606.3" font-family="SimSun" font-weight="bold" font-size="9.00" fill="white">订单 (Order)</text>
<polygon fill="none" stroke="black" points="911,-580.5 911,-598.5 978,-598.5 978,-580.5 911,-580.5"/>
<text text-anchor="start" x="915" y="-588.3" font-family="SimSun" text-decoration="underline" font-size="9.00">订单编号</text>
<text text-anchor="start" x="952" y="-588.3" font-family="SimSun" font-size="9.00"> (PK)</text>
<polygon fill="none" stroke="black" points="911,-562.5 911,-580.5 978,-580.5 978,-562.5 911,-562.5"/>
<text text-anchor="start" x="915" y="-569.3" font-family="SimSun" font-size="9.00">顾客ID (FK)</text>
<polygon fill="none" stroke="black" points="911,-544.5 911,-562.5 978,-562.5 978,-544.5 911,-544.5"/>
<text text-anchor="start" x="915" y="-551.3" font-family="SimSun" font-size="9.00">商家ID (FK)</text>
<polygon fill="none" stroke="black" points="911,-526.5 911,-544.5 978,-544.5 978,-526.5 911,-526.5"/>
<text text-anchor="start" x="915" y="-533.3" font-family="SimSun" font-size="9.00">下单时间</text>
<polygon fill="none" stroke="black" points="911,-508.5 911,-526.5 978,-526.5 978,-508.5 911,-508.5"/>
<text text-anchor="start" x="915" y="-515.3" font-family="SimSun" font-size="9.00">订单状态</text>
<polygon fill="none" stroke="black" points="911,-490.5 911,-508.5 978,-508.5 978,-490.5 911,-490.5"/>
<text text-anchor="start" x="915" y="-497.3" font-family="SimSun" font-size="9.00">总金额</text>
<polygon fill="none" stroke="black" points="911,-472.5 911,-490.5 978,-490.5 978,-472.5 911,-472.5"/>
<text text-anchor="start" x="915" y="-479.3" font-family="SimSun" font-size="9.00">订单备注</text>
</g>
<!-- T_Order&#45;&gt;T_Merchant -->
<g id="edge11" class="edge">
<title>T_Order&#45;&gt;T_Merchant</title>
<path fill="none" stroke="#c0392b" stroke-dasharray="5,2" d="M902.5,-474C746.16,-474 201.62,-474 201.62,-474 201.62,-474 201.62,-198.8 201.62,-198.8"/>
<polygon fill="#c0392b" stroke="#c0392b" points="205.13,-198.8 201.62,-188.8 198.13,-198.8 205.13,-198.8"/>
<text text-anchor="middle" x="965.5" y="-326.6" font-family="SimSun" font-size="8.00"> &#160;商家ID FK (N:1)</text>
</g>
<!-- T_Order&#45;&gt;T_Customer -->
<g id="edge10" class="edge">
<title>T_Order:w&#45;&gt;T_Customer:e</title>
<path fill="none" stroke="#c0392b" stroke-dasharray="5,2" d="M902,-471C902,-471 383,-471 383,-471 383,-471 383,-104.5 383,-104.5"/>
<polygon fill="#c0392b" stroke="#c0392b" points="386.5,-104.5 383,-94.5 379.5,-104.5 386.5,-104.5"/>
<text text-anchor="middle" x="856.5" y="-326.6" font-family="SimSun" font-size="8.00"> &#160;顾客ID FK (N:1)</text>
</g>
<!-- T_OrderDet -->
<g id="node10" class="node">
<title>T_OrderDet</title>
<polygon fill="#ebf5fb" stroke="black" points="1166,-270.5 1166,-386.5 1290,-386.5 1290,-270.5 1166,-270.5"/>
<polygon fill="#e74c3c" stroke="transparent" points="1174,-364.5 1174,-382.5 1282,-382.5 1282,-364.5 1174,-364.5"/>
<polygon fill="none" stroke="black" points="1174,-364.5 1174,-382.5 1282,-382.5 1282,-364.5 1174,-364.5"/>
<text text-anchor="start" x="1178" y="-372.3" font-family="SimSun" font-weight="bold" font-size="9.00" fill="white">订单明细 (OrderDetail)</text>
<polygon fill="none" stroke="black" points="1174,-346.5 1174,-364.5 1282,-364.5 1282,-346.5 1174,-346.5"/>
<text text-anchor="start" x="1178" y="-354.3" font-family="SimSun" text-decoration="underline" font-size="9.00">明细ID</text>
<text text-anchor="start" x="1207" y="-354.3" font-family="SimSun" font-size="9.00"> (PK)</text>
<polygon fill="none" stroke="black" points="1174,-328.5 1174,-346.5 1282,-346.5 1282,-328.5 1174,-328.5"/>
<text text-anchor="start" x="1178" y="-335.3" font-family="SimSun" font-size="9.00">订单编号 (FK)</text>
<polygon fill="none" stroke="black" points="1174,-310.5 1174,-328.5 1282,-328.5 1282,-310.5 1174,-310.5"/>
<text text-anchor="start" x="1178" y="-317.3" font-family="SimSun" font-size="9.00">菜品ID (FK)</text>
<polygon fill="none" stroke="black" points="1174,-292.5 1174,-310.5 1282,-310.5 1282,-292.5 1174,-292.5"/>
<text text-anchor="start" x="1178" y="-299.3" font-family="SimSun" font-size="9.00">数量</text>
<polygon fill="none" stroke="black" points="1174,-274.5 1174,-292.5 1282,-292.5 1282,-274.5 1174,-274.5"/>
<text text-anchor="start" x="1178" y="-281.3" font-family="SimSun" font-size="9.00">成交单价</text>
</g>
<!-- T_OrderDet&#45;&gt;T_Dish -->
<g id="edge13" class="edge">
<title>T_OrderDet&#45;&gt;T_Dish</title>
<path fill="none" stroke="#c0392b" stroke-dasharray="5,2" d="M1228,-270.14C1228,-257.07 1228,-247 1228,-247 1228,-247 176.51,-247 176.51,-247"/>
<polygon fill="#c0392b" stroke="#c0392b" points="176.51,-243.5 166.51,-247 176.51,-250.5 176.51,-243.5"/>
<text text-anchor="middle" x="634" y="-443.6" font-family="SimSun" font-size="8.00"> &#160;菜品ID FK (N:1)</text>
</g>
<!-- T_OrderDet&#45;&gt;T_Order -->
<g id="edge12" class="edge">
<title>T_OrderDet:w&#45;&gt;T_Order:e</title>
<path fill="none" stroke="#c0392b" stroke-dasharray="5,2" d="M1228,-328.5C1228,-328.5 1228,-544 1228,-544 1228,-544 996,-544 996,-544"/>
<polygon fill="#c0392b" stroke="#c0392b" points="996,-540.5 986,-544 996,-547.5 996,-540.5"/>
<text text-anchor="middle" x="1177.5" y="-443.6" font-family="SimSun" font-size="8.00"> &#160;订单编号 FK (N:1)</text>
</g>
<!-- T_Delivery -->
<g id="node11" class="node">
<title>T_Delivery</title>
<polygon fill="#ebf5fb" stroke="black" points="1020.5,-261.5 1020.5,-395.5 1143.5,-395.5 1143.5,-261.5 1020.5,-261.5"/>
<polygon fill="#1abc9c" stroke="transparent" points="1029,-373.5 1029,-391.5 1136,-391.5 1136,-373.5 1029,-373.5"/>
<polygon fill="none" stroke="black" points="1029,-373.5 1029,-391.5 1136,-391.5 1136,-373.5 1029,-373.5"/>
<text text-anchor="start" x="1049" y="-381.3" font-family="SimSun" font-weight="bold" font-size="9.00" fill="white">配送 (Delivery)</text>
<polygon fill="none" stroke="black" points="1029,-355.5 1029,-373.5 1136,-373.5 1136,-355.5 1029,-355.5"/>
<text text-anchor="start" x="1033" y="-363.3" font-family="SimSun" text-decoration="underline" font-size="9.00">配送ID</text>
<text text-anchor="start" x="1062" y="-363.3" font-family="SimSun" font-size="9.00"> (PK)</text>
<polygon fill="none" stroke="black" points="1029,-337.5 1029,-355.5 1136,-355.5 1136,-337.5 1029,-337.5"/>
<text text-anchor="start" x="1033" y="-344.3" font-family="SimSun" font-size="9.00">订单编号 (FK, UNIQUE)</text>
<polygon fill="none" stroke="black" points="1029,-319.5 1029,-337.5 1136,-337.5 1136,-319.5 1029,-319.5"/>
<text text-anchor="start" x="1033" y="-326.3" font-family="SimSun" font-size="9.00">骑手ID (FK)</text>
<polygon fill="none" stroke="black" points="1029,-301.5 1029,-319.5 1136,-319.5 1136,-301.5 1029,-301.5"/>
<text text-anchor="start" x="1033" y="-308.3" font-family="SimSun" font-size="9.00">取餐时间</text>
<polygon fill="none" stroke="black" points="1029,-283.5 1029,-301.5 1136,-301.5 1136,-283.5 1029,-283.5"/>
<text text-anchor="start" x="1033" y="-290.3" font-family="SimSun" font-size="9.00">送达时间</text>
<polygon fill="none" stroke="black" points="1029,-265.5 1029,-283.5 1136,-283.5 1136,-265.5 1029,-265.5"/>
<text text-anchor="start" x="1033" y="-272.3" font-family="SimSun" font-size="9.00">配送状态</text>
</g>
<!-- T_Delivery&#45;&gt;T_Rider -->
<g id="edge15" class="edge">
<title>T_Delivery:e&#45;&gt;T_Rider:w</title>
<path fill="none" stroke="#c0392b" stroke-dasharray="5,2" d="M1144,-306C1144,-306 925.75,-306 925.75,-306 925.75,-306 925.75,-104.5 925.75,-104.5"/>
<polygon fill="#c0392b" stroke="#c0392b" points="929.25,-104.5 925.75,-94.5 922.25,-104.5 929.25,-104.5"/>
<text text-anchor="middle" x="895.5" y="-209.6" font-family="SimSun" font-size="8.00"> &#160;骑手ID FK (N:1)</text>
</g>
<!-- T_Delivery&#45;&gt;T_Order -->
<g id="edge14" class="edge">
<title>T_Delivery:w&#45;&gt;T_Order:e</title>
<path fill="none" stroke="#c0392b" stroke-dasharray="5,2" d="M1020,-351C1020,-351 967.25,-351 967.25,-351 967.25,-351 967.25,-534.5 967.25,-534.5"/>
<polygon fill="#c0392b" stroke="#c0392b" points="963.75,-534.5 967.25,-544.5 970.75,-534.5 963.75,-534.5"/>
<text text-anchor="middle" x="1043.5" y="-443.6" font-family="SimSun" font-size="8.00"> &#160;订单编号 FK (1:1)</text>
</g>
</g>
</svg>
